<svg xmlns="http://www.w3.org/2000/svg" xmlns:xlink="http://www.w3.org/1999/xlink" version="1.1" id="Line_pattern" x="0px" y="0px" viewBox="0 0 1800 1200" style="enable-background:new 0 0 1800 1200;" xml:space="preserve">
<g id="Pattern_and_Background">
	<rect id="Background" style="fill:#FFFFFF;" width="1800" height="1200"/>
	<g id="Pattern">
		<g>
			<g>
				<path style="fill:#e1f1e0;" d="M1660.469,1076.772c63.528,5.35,113.198,59.359,113.198,123.228h2.667      c0-31.936-11.992-62.439-33.768-85.891c-21.658-23.325-50.957-37.547-82.498-40.045l-0.613-0.048L1533.47,1200h3.771      L1660.469,1076.772z"/>
				<path style="fill:#e1f1e0;" d="M1669.359,1103.238c20.366,4.063,38.656,14.321,52.932,29.697      c17.009,18.317,26.376,42.135,26.376,67.065h2.667c0-25.605-9.62-50.067-27.088-68.879      c-14.827-15.969-33.872-26.563-55.076-30.637l-0.694-0.133l-99.65,99.65h3.771L1669.359,1103.238z"/>
				<path style="fill:#e1f1e0;" d="M1676.649,1131.303c10.387,4.031,19.575,10.3,27.321,18.643      c12.701,13.679,19.696,31.455,19.696,50.054h2.667c0-19.274-7.248-37.695-20.408-51.869c-8.229-8.862-18.033-15.467-29.14-19.63      l-0.804-0.302L1604.181,1200h3.771L1676.649,1131.303z"/>
				<path style="fill:#e1f1e0;" d="M1680.876,1162.432c1.667,1.385,3.269,2.904,4.774,4.525c8.394,9.04,13.016,20.775,13.016,33.043      h2.667c0-12.944-4.876-25.323-13.728-34.858c-1.874-2.018-3.891-3.885-5.995-5.549l-0.931-0.736L1639.536,1200h3.771      L1680.876,1162.432z"/>
				<path style="fill:#e1f1e0;" d="M1650.545,1051.34c81.725,0.296,148.122,66.867,148.122,148.66H1800c0-82.843-67.157-150-150-150      l-150,150h1.885L1650.545,1051.34z"/>
			</g>
			<path style="fill:#e1f1e0;" d="M1800,1200v-20.242c-1.128-8.491-2.97-16.813-5.485-24.899l5.485-5.485v-3.771l-6.403,6.404     c-2.541-7.628-5.69-15.034-9.426-22.159l15.83-15.829v-3.771l-17.144,17.145c-3.645-6.646-7.81-13.034-12.466-19.118l29.61-29.61     v-3.771l-31.262,31.262c-3.63-4.574-7.538-8.971-11.73-13.162c-1.119-1.119-2.256-2.21-3.403-3.289l46.395-46.394v-3.771     l-48.349,48.349c-5.603-5.091-11.524-9.72-17.719-13.866l66.068-66.067v-3.771l-68.351,68.351     c-6.567-4.225-13.425-7.922-20.526-11.058L1800,972.597v-3.771l-91.516,91.516c-7.71-3.229-15.69-5.806-23.873-7.712     L1800,937.241v-3.771l-118.476,118.477c-9.236-1.947-18.714-3.044-28.344-3.241L1800,901.885V900l-150,150     C1732.843,1050,1800,1117.157,1800,1200z"/>
		</g>
		<g>
			<path style="fill:#e1f1e0;" d="M1050,1050c82.843,0,150,67.157,150,150c0-82.843,67.157-150,150-150l-150-150L1050,1050z      M1200,1179.758c-1.128-8.491-2.97-16.813-5.485-24.899l5.485-5.485l5.485,5.485     C1202.97,1162.945,1201.128,1171.267,1200,1179.758z M1206.403,1152.006l-6.403-6.404l-6.403,6.404     c-2.541-7.628-5.69-15.034-9.426-22.159l15.83-15.829l15.83,15.829C1212.094,1136.972,1208.945,1144.379,1206.403,1152.006z      M1217.144,1127.392L1200,1110.247l-17.144,17.145c-3.645-6.646-7.81-13.034-12.466-19.118l29.61-29.61l29.61,29.61     C1224.955,1114.358,1220.789,1120.745,1217.144,1127.392z M1242.991,1092.991c-4.191,4.191-8.1,8.588-11.73,13.162L1200,1074.892     l-31.262,31.262c-3.63-4.574-7.538-8.971-11.73-13.162c-1.119-1.119-2.256-2.21-3.403-3.289l46.395-46.394l46.395,46.394     C1245.248,1090.781,1244.11,1091.873,1242.991,1092.991z M1248.349,1087.885L1200,1039.536l-48.349,48.349     c-5.603-5.091-11.524-9.72-17.719-13.866l66.068-66.067l66.068,66.067C1259.873,1078.165,1253.952,1082.794,1248.349,1087.885z      M1268.351,1072.531L1200,1004.181l-68.351,68.351c-6.567-4.225-13.425-7.922-20.526-11.058L1200,972.597l88.877,88.876     C1281.776,1064.609,1274.918,1068.306,1268.351,1072.531z M1291.516,1060.342L1200,968.825l-91.516,91.516     c-7.71-3.229-15.69-5.806-23.873-7.712L1200,937.241l115.389,115.389C1307.207,1054.536,1299.226,1057.113,1291.516,1060.342z      M1318.476,1051.947L1200,933.47l-118.476,118.477c-9.236-1.947-18.714-3.044-28.344-3.241L1200,901.885l146.82,146.82     C1337.191,1048.903,1327.713,1049.999,1318.476,1051.947z"/>
			<g>
				<path style="fill:#e1f1e0;" d="M1339.933,1074.064c-31.541,2.498-60.84,16.72-82.498,40.045      c-21.775,23.452-33.768,53.955-33.768,85.891h2.667c0-63.869,49.67-117.878,113.198-123.228L1462.759,1200h3.771      l-125.985-125.984L1339.933,1074.064z"/>
				<path style="fill:#e1f1e0;" d="M1330.83,1100.484c-21.204,4.075-40.249,14.669-55.076,30.637      c-17.468,18.812-27.088,43.274-27.088,68.879h2.667c0-24.93,9.367-48.747,26.376-67.065      c14.277-15.376,32.566-25.634,52.932-29.697l96.762,96.762h3.771l-99.65-99.65L1330.83,1100.484z"/>
				<path style="fill:#e1f1e0;" d="M1323.214,1128.501c-11.107,4.164-20.911,10.768-29.14,19.631      c-13.161,14.173-20.408,32.594-20.408,51.868h2.667c0-18.6,6.995-36.376,19.696-50.054c7.746-8.343,16.934-14.612,27.321-18.644      l68.697,68.697h3.771l-71.801-71.801L1323.214,1128.501z"/>
				<path style="fill:#e1f1e0;" d="M1318.39,1159.593c-2.104,1.664-4.121,3.531-5.995,5.55      c-8.853,9.534-13.728,21.913-13.728,34.857h2.667c0-12.269,4.622-24.003,13.016-33.043c1.506-1.622,3.109-3.141,4.775-4.526      l37.568,37.568h3.771l-41.143-41.143L1318.39,1159.593z"/>
				<path style="fill:#e1f1e0;" d="M1200,1200h1.333c0-81.793,66.397-148.364,148.122-148.66l148.66,148.66H1500l-150-150      C1267.157,1050,1200,1117.157,1200,1200z"/>
			</g>
			<g>
				<path style="fill:#e1f1e0;" d="M1060.067,1074.064l-0.613-0.048L933.47,1200h3.771l123.228-123.228      c63.528,5.35,113.198,59.359,113.198,123.228h2.667c0-31.936-11.992-62.439-33.768-85.891      C1120.907,1090.784,1091.609,1076.563,1060.067,1074.064z"/>
				<path style="fill:#e1f1e0;" d="M1069.17,1100.484l-0.694-0.133l-99.65,99.65h3.771l96.762-96.762      c20.366,4.063,38.656,14.321,52.932,29.697c17.009,18.317,26.376,42.135,26.376,67.065h2.667      c0-25.605-9.62-50.067-27.088-68.879C1109.419,1115.152,1090.374,1104.558,1069.17,1100.484z"/>
				<path style="fill:#e1f1e0;" d="M1076.786,1128.501l-0.804-0.302L1004.181,1200h3.771l68.697-68.697      c10.387,4.031,19.575,10.3,27.321,18.643c12.701,13.679,19.696,31.455,19.696,50.054h2.667c0-19.274-7.248-37.695-20.408-51.869      C1097.696,1139.269,1087.892,1132.664,1076.786,1128.501z"/>
				<path style="fill:#e1f1e0;" d="M1081.61,1159.593l-0.931-0.736L1039.536,1200h3.771l37.568-37.568      c1.667,1.385,3.269,2.904,4.774,4.525c8.394,9.04,13.016,20.775,13.016,33.043h2.667c0-12.944-4.876-25.323-13.728-34.858      C1085.731,1163.125,1083.714,1161.258,1081.61,1159.593z"/>
				<path style="fill:#e1f1e0;" d="M1050,1050l-150,150h1.885l148.66-148.66c81.725,0.296,148.122,66.867,148.122,148.66H1200      C1200,1117.157,1132.843,1050,1050,1050z"/>
			</g>
		</g>
		<g>
			<path style="fill:#e1f1e0;" d="M450,1050c82.843,0,150,67.157,150,150c0-82.843,67.157-150,150-150L600,900L450,1050z      M600,1179.758c-1.128-8.491-2.97-16.813-5.485-24.899l5.485-5.485l5.485,5.485C602.97,1162.945,601.128,1171.267,600,1179.758z      M606.404,1152.006l-6.404-6.404l-6.404,6.404c-2.541-7.628-5.69-15.034-9.426-22.159l15.83-15.829l15.83,15.829     C612.094,1136.972,608.945,1144.379,606.404,1152.006z M617.144,1127.392L600,1110.247l-17.144,17.145     c-3.645-6.646-7.81-13.034-12.466-19.118l29.61-29.61l29.61,29.61C624.955,1114.358,620.789,1120.745,617.144,1127.392z      M642.991,1092.991c-4.191,4.191-8.1,8.588-11.73,13.162L600,1074.892l-31.262,31.262c-3.63-4.574-7.539-8.971-11.73-13.162     c-1.118-1.119-2.256-2.21-3.404-3.289L600,1043.308l46.395,46.394C645.248,1090.781,644.11,1091.873,642.991,1092.991z      M648.349,1087.885L600,1039.536l-48.349,48.349c-5.602-5.091-11.524-9.72-17.719-13.866L600,1007.952l66.068,66.067     C659.873,1078.165,653.951,1082.794,648.349,1087.885z M668.351,1072.531L600,1004.181l-68.351,68.351     c-6.567-4.225-13.425-7.922-20.526-11.058L600,972.597l88.877,88.876C681.776,1064.609,674.918,1068.306,668.351,1072.531z      M691.516,1060.342L600,968.825l-91.516,91.516c-7.71-3.229-15.69-5.806-23.873-7.712L600,937.241l115.389,115.389     C707.207,1054.536,699.226,1057.113,691.516,1060.342z M718.476,1051.947L600,933.47l-118.476,118.477     c-9.236-1.947-18.714-3.044-28.344-3.241L600,901.885l146.82,146.82C737.191,1048.903,727.713,1049.999,718.476,1051.947z"/>
			<g>
				<path style="fill:#e1f1e0;" d="M739.933,1074.064c-31.541,2.498-60.84,16.72-82.498,40.045      c-21.775,23.452-33.768,53.955-33.768,85.891h2.667c0-63.869,49.67-117.878,113.198-123.228L862.759,1200h3.771      l-125.985-125.984L739.933,1074.064z"/>
				<path style="fill:#e1f1e0;" d="M730.83,1100.484c-21.204,4.075-40.249,14.669-55.076,30.637      c-17.468,18.812-27.088,43.274-27.088,68.879h2.667c0-24.93,9.367-48.747,26.376-67.065      c14.277-15.376,32.566-25.634,52.932-29.697L827.403,1200h3.771l-99.65-99.65L730.83,1100.484z"/>
				<path style="fill:#e1f1e0;" d="M723.214,1128.501c-11.107,4.164-20.911,10.768-29.14,19.631      c-13.16,14.173-20.408,32.594-20.408,51.868h2.667c0-18.6,6.995-36.376,19.696-50.054c7.746-8.343,16.934-14.612,27.321-18.644      L792.048,1200h3.771l-71.801-71.801L723.214,1128.501z"/>
				<path style="fill:#e1f1e0;" d="M718.39,1159.593c-2.104,1.664-4.121,3.531-5.995,5.55c-8.853,9.534-13.728,21.913-13.728,34.857      h2.667c0-12.269,4.622-24.003,13.016-33.043c1.506-1.622,3.109-3.141,4.775-4.526L756.692,1200h3.772l-41.143-41.143      L718.39,1159.593z"/>
				<path style="fill:#e1f1e0;" d="M600,1200h1.333c0-81.793,66.397-148.364,148.121-148.66L898.115,1200H900l-150-150      C667.157,1050,600,1117.157,600,1200z"/>
			</g>
			<g>
				<path style="fill:#e1f1e0;" d="M460.067,1074.064l-0.613-0.048L333.47,1200h3.772l123.228-123.228      c63.528,5.35,113.198,59.359,113.198,123.228h2.667c0-31.936-11.992-62.439-33.768-85.891      C520.907,1090.784,491.609,1076.563,460.067,1074.064z"/>
				<path style="fill:#e1f1e0;" d="M469.17,1100.484l-0.694-0.133l-99.65,99.65h3.772l96.762-96.762      c20.366,4.063,38.656,14.321,52.932,29.697c17.009,18.317,26.376,42.135,26.376,67.065h2.667      c0-25.605-9.62-50.067-27.088-68.879C509.419,1115.152,490.374,1104.558,469.17,1100.484z"/>
				<path style="fill:#e1f1e0;" d="M476.785,1128.501l-0.804-0.302L404.181,1200h3.771l68.697-68.697      c10.387,4.031,19.575,10.3,27.321,18.643c12.701,13.679,19.696,31.455,19.696,50.054h2.667c0-19.274-7.248-37.695-20.408-51.869      C497.696,1139.269,487.892,1132.664,476.785,1128.501z"/>
				<path style="fill:#e1f1e0;" d="M481.61,1159.593l-0.931-0.736L439.536,1200h3.771l37.568-37.568      c1.667,1.385,3.269,2.904,4.774,4.525c8.394,9.04,13.016,20.775,13.016,33.043h2.667c0-12.944-4.876-25.323-13.729-34.858      C485.731,1163.125,483.714,1161.258,481.61,1159.593z"/>
				<path style="fill:#e1f1e0;" d="M450,1050l-150,150h1.885l148.66-148.66c81.725,0.296,148.121,66.867,148.121,148.66H600      C600,1117.157,532.843,1050,450,1050z"/>
			</g>
		</g>
		<g>
			<g>
				<path style="fill:#e1f1e0;" d="M139.933,1074.064c-31.541,2.498-60.84,16.72-82.498,40.045      c-21.775,23.452-33.768,53.955-33.768,85.891h2.667c0-63.869,49.67-117.878,113.198-123.228L262.759,1200h3.772      l-125.985-125.984L139.933,1074.064z"/>
				<path style="fill:#e1f1e0;" d="M130.83,1100.484c-21.204,4.075-40.249,14.669-55.076,30.637      c-17.468,18.812-27.088,43.274-27.088,68.879h2.667c0-24.93,9.367-48.747,26.376-67.065      c14.277-15.376,32.566-25.634,52.932-29.697L227.403,1200h3.771l-99.65-99.65L130.83,1100.484z"/>
				<path style="fill:#e1f1e0;" d="M123.215,1128.501c-11.107,4.164-20.911,10.768-29.14,19.631      c-13.16,14.173-20.408,32.594-20.408,51.868h2.667c0-18.6,6.995-36.376,19.696-50.054c7.746-8.343,16.934-14.612,27.321-18.644      L192.048,1200h3.771l-71.801-71.801L123.215,1128.501z"/>
				<path style="fill:#e1f1e0;" d="M118.39,1159.593c-2.104,1.664-4.121,3.531-5.995,5.55c-8.853,9.534-13.728,21.913-13.728,34.857      h2.667c0-12.269,4.622-24.003,13.016-33.043c1.506-1.622,3.109-3.141,4.775-4.526L156.692,1200h3.771l-41.143-41.143      L118.39,1159.593z"/>
				<path style="fill:#e1f1e0;" d="M0,1200h1.333c0-81.793,66.397-148.364,148.122-148.66L298.115,1200H300l-150-150      C67.157,1050,0,1117.157,0,1200z"/>
			</g>
			<path style="fill:#e1f1e0;" d="M146.82,1048.705c-9.629,0.197-19.107,1.294-28.344,3.241L0,933.47v3.771l115.389,115.389     c-8.183,1.905-16.163,4.482-23.873,7.712L0,968.825v3.771l88.877,88.876c-7.101,3.136-13.959,6.833-20.526,11.058L0,1004.181     v3.771l66.067,66.067c-6.195,4.146-12.116,8.775-17.718,13.866L0,1039.536v3.771l46.395,46.394     c-1.147,1.079-2.285,2.171-3.403,3.289c-4.191,4.191-8.1,8.588-11.73,13.162L0,1074.892v3.771l29.61,29.61     c-4.656,6.085-8.822,12.472-12.466,19.118L0,1110.247v3.771l15.83,15.829c-3.736,7.124-6.885,14.531-9.426,22.159L0,1145.603     v3.771l5.485,5.485c-2.515,8.086-4.357,16.408-5.485,24.899V1200c0-82.843,67.157-150,150-150L0,900v1.885L146.82,1048.705z"/>
		</g>
		<g>
			<path style="fill:#e1f1e0;" d="M1500,900c0,82.843-67.157,150-150,150l150,150l150-150C1567.157,1050,1500,982.843,1500,900z      M1500,920.242c1.128,8.491,2.97,16.813,5.485,24.899l-5.485,5.485l-5.485-5.485C1497.03,937.055,1498.872,928.733,1500,920.242z      M1493.597,947.994l6.403,6.404l6.403-6.404c2.541,7.628,5.69,15.034,9.426,22.159L1500,985.981l-15.83-15.829     C1487.906,963.028,1491.055,955.622,1493.597,947.994z M1482.856,972.608L1500,989.753l17.144-17.145     c3.645,6.646,7.81,13.034,12.466,19.118l-29.61,29.61l-29.61-29.61C1475.045,985.642,1479.211,979.255,1482.856,972.608z      M1646.82,1051.295L1500,1198.115l-146.82-146.82c9.629-0.197,19.107-1.294,28.344-3.241L1500,1166.53l118.476-118.477     C1627.713,1050.001,1637.191,1051.097,1646.82,1051.295z M1615.389,1047.37L1500,1162.759l-115.389-115.389     c8.183-1.906,16.163-4.483,23.873-7.712l91.516,91.516l91.516-91.516C1599.226,1042.887,1607.207,1045.464,1615.389,1047.37z      M1588.877,1038.527L1500,1127.403l-88.877-88.876c7.101-3.136,13.959-6.833,20.526-11.058l68.351,68.351l68.351-68.351     C1574.918,1031.694,1581.776,1035.391,1588.877,1038.527z M1566.068,1025.981L1500,1092.048l-66.068-66.067     c6.195-4.146,12.116-8.775,17.719-13.866l48.349,48.349l48.349-48.349C1553.952,1017.206,1559.873,1021.835,1566.068,1025.981z      M1500,1056.692l-46.395-46.394c1.147-1.079,2.285-2.171,3.403-3.289c4.191-4.191,8.1-8.588,11.73-13.162l31.262,31.262     l31.262-31.262c3.63,4.574,7.538,8.971,11.73,13.162c1.119,1.119,2.256,2.21,3.403,3.289L1500,1056.692z"/>
			<g>
				<path style="fill:#e1f1e0;" d="M1557.435,985.891c21.658,23.325,50.957,37.547,82.498,40.045l0.613,0.048L1766.53,900      l-125.985-125.984l-0.613,0.048c-31.541,2.498-60.84,16.72-82.498,40.045c-21.775,23.452-33.768,53.955-33.768,85.891      S1535.659,962.439,1557.435,985.891z M1639.531,776.773L1762.759,900l-123.228,123.227      c-63.528-5.35-113.198-59.359-113.198-123.227S1576.003,782.122,1639.531,776.773z"/>
				<path style="fill:#e1f1e0;" d="M1575.755,968.879c14.827,15.969,33.872,26.563,55.076,30.637l0.694,0.133l99.65-99.65      l-99.65-99.65l-0.694,0.133c-21.204,4.075-40.249,14.669-55.076,30.637c-17.468,18.812-27.088,43.274-27.088,68.879      S1558.287,950.067,1575.755,968.879z M1577.709,832.935c14.277-15.376,32.566-25.634,52.932-29.697L1727.403,900l-96.762,96.762      c-20.366-4.063-38.656-14.321-52.932-29.697c-17.009-18.317-26.376-42.135-26.376-67.065S1560.7,851.253,1577.709,832.935z"/>
				<path style="fill:#e1f1e0;" d="M1594.075,951.869c8.229,8.862,18.033,15.467,29.14,19.631l0.804,0.301L1695.819,900      l-71.801-71.801l-0.804,0.301c-11.107,4.164-20.911,10.769-29.14,19.631c-13.161,14.173-20.408,32.594-20.408,51.868      C1573.667,919.274,1580.914,937.695,1594.075,951.869z M1596.029,849.946c7.746-8.343,16.934-14.612,27.321-18.644L1692.048,900      l-68.697,68.697c-10.387-4.031-19.575-10.301-27.321-18.643c-12.701-13.679-19.696-31.455-19.696-50.054      C1576.333,881.4,1583.328,863.624,1596.029,849.946z"/>
				<path style="fill:#e1f1e0;" d="M1618.39,940.407l0.931,0.736L1660.464,900l-41.143-41.143l-0.931,0.736      c-2.104,1.664-4.121,3.531-5.995,5.549c-8.853,9.534-13.728,21.913-13.728,34.857c0,12.944,4.876,25.323,13.728,34.858      C1614.269,936.875,1616.286,938.742,1618.39,940.407z M1614.349,866.957c1.506-1.622,3.109-3.141,4.775-4.526L1656.692,900      l-37.568,37.568c-1.667-1.385-3.269-2.904-4.774-4.525c-8.394-9.04-13.016-20.775-13.016-33.043      S1605.956,875.997,1614.349,866.957z"/>
				<path style="fill:#e1f1e0;" d="M1500,900c0,82.843,67.157,150,150,150l150-150l-150-150C1567.157,750,1500,817.157,1500,900z       M1649.455,751.34L1798.115,900l-148.66,148.66c-81.725-0.296-148.122-66.867-148.122-148.66S1567.73,751.636,1649.455,751.34z"/>
			</g>
			<g>
				<path style="fill:#e1f1e0;" d="M1442.565,814.109c-21.658-23.325-50.957-37.547-82.498-40.045l-0.613-0.048L1233.47,900      l125.985,125.984l0.613-0.048c31.541-2.498,60.84-16.72,82.498-40.045c21.775-23.452,33.768-53.955,33.768-85.891      S1464.341,837.561,1442.565,814.109z M1360.469,1023.227L1237.241,900l123.228-123.227      c63.528,5.35,113.198,59.359,113.198,123.227S1423.997,1017.878,1360.469,1023.227z"/>
				<path style="fill:#e1f1e0;" d="M1424.245,831.121c-14.827-15.969-33.872-26.563-55.076-30.637l-0.694-0.133l-99.65,99.65      l99.65,99.65l0.694-0.133c21.204-4.075,40.249-14.669,55.076-30.637c17.468-18.812,27.088-43.274,27.088-68.879      S1441.713,849.933,1424.245,831.121z M1422.291,967.065c-14.277,15.376-32.566,25.634-52.932,29.697L1272.597,900l96.762-96.762      c20.366,4.063,38.656,14.321,52.932,29.697c17.009,18.317,26.376,42.135,26.376,67.065S1439.3,948.747,1422.291,967.065z"/>
				<path style="fill:#e1f1e0;" d="M1405.925,848.131c-8.229-8.862-18.033-15.467-29.14-19.631l-0.804-0.301L1304.181,900      l71.801,71.801l0.804-0.301c11.107-4.164,20.911-10.769,29.14-19.631c13.161-14.173,20.408-32.594,20.408-51.868      C1426.333,880.726,1419.086,862.305,1405.925,848.131z M1403.971,950.054c-7.746,8.343-16.934,14.612-27.321,18.644      L1307.952,900l68.697-68.697c10.387,4.031,19.575,10.301,27.321,18.643c12.701,13.679,19.696,31.455,19.696,50.054      C1423.667,918.6,1416.672,936.376,1403.971,950.054z"/>
				<path style="fill:#e1f1e0;" d="M1381.61,859.593l-0.931-0.736L1339.536,900l41.143,41.143l0.931-0.736      c2.104-1.664,4.121-3.531,5.995-5.549c8.853-9.534,13.728-21.913,13.728-34.857c0-12.944-4.876-25.323-13.728-34.858      C1385.731,863.125,1383.714,861.258,1381.61,859.593z M1385.651,933.043c-1.506,1.622-3.109,3.141-4.775,4.526L1343.308,900      l37.568-37.568c1.667,1.385,3.269,2.904,4.774,4.525c8.394,9.04,13.016,20.775,13.016,33.043S1394.044,924.003,1385.651,933.043      z"/>
				<path style="fill:#e1f1e0;" d="M1500,900c0-82.843-67.157-150-150-150l-150,150l150,150C1432.843,1050,1500,982.843,1500,900z       M1350.545,1048.66L1201.885,900l148.66-148.66c81.725,0.296,148.122,66.867,148.122,148.66S1432.27,1048.364,1350.545,1048.66z      "/>
			</g>
			<path style="fill:#e1f1e0;" d="M1350,750c82.843,0,150,67.157,150,150c0-82.843,67.157-150,150-150l-150-150L1350,750z      M1500,879.758c-1.128-8.491-2.97-16.813-5.485-24.899l5.485-5.485l5.485,5.485C1502.97,862.945,1501.128,871.267,1500,879.758z      M1506.403,852.006l-6.403-6.404l-6.403,6.404c-2.541-7.628-5.69-15.034-9.426-22.159l15.83-15.829l15.83,15.829     C1512.094,836.972,1508.945,844.378,1506.403,852.006z M1517.144,827.392L1500,810.247l-17.144,17.145     c-3.645-6.646-7.81-13.034-12.466-19.118l29.61-29.61l29.61,29.61C1524.955,814.358,1520.789,820.745,1517.144,827.392z      M1542.991,792.991c-4.191,4.191-8.1,8.588-11.73,13.162L1500,774.892l-31.262,31.262c-3.63-4.574-7.538-8.971-11.73-13.162     c-1.119-1.119-2.256-2.21-3.403-3.289L1500,743.308l46.395,46.394C1545.248,790.781,1544.11,791.873,1542.991,792.991z      M1548.349,787.885L1500,739.536l-48.349,48.349c-5.603-5.091-11.524-9.72-17.719-13.866L1500,707.952l66.068,66.067     C1559.873,778.165,1553.952,782.794,1548.349,787.885z M1568.351,772.531L1500,704.181l-68.351,68.351     c-6.567-4.225-13.425-7.922-20.526-11.058L1500,672.597l88.877,88.877C1581.776,764.609,1574.918,768.306,1568.351,772.531z      M1591.516,760.342L1500,668.825l-91.516,91.516c-7.71-3.229-15.69-5.806-23.873-7.712L1500,637.241l115.389,115.389     C1607.207,754.536,1599.226,757.112,1591.516,760.342z M1618.476,751.946L1500,633.47l-118.476,118.477     c-9.236-1.947-18.714-3.044-28.344-3.241L1500,601.885l146.82,146.82C1637.191,748.903,1627.713,749.999,1618.476,751.946z"/>
		</g>
		<g>
			<path style="fill:#e1f1e0;" d="M900,900c0,82.843-67.157,150-150,150l150,150l150-150C967.157,1050,900,982.843,900,900z      M900,920.242c1.128,8.491,2.97,16.813,5.485,24.899L900,950.626l-5.485-5.485C897.03,937.055,898.872,928.733,900,920.242z      M893.596,947.994l6.404,6.404l6.404-6.404c2.541,7.628,5.69,15.034,9.426,22.159L900,985.981l-15.83-15.829     C887.906,963.028,891.055,955.622,893.596,947.994z M882.856,972.608L900,989.753l17.144-17.145     c3.645,6.646,7.81,13.034,12.466,19.118l-29.61,29.61l-29.61-29.61C875.045,985.642,879.211,979.255,882.856,972.608z      M1046.82,1051.295L900,1198.115l-146.82-146.82c9.629-0.197,19.107-1.294,28.344-3.241L900,1166.53l118.476-118.477     C1027.713,1050.001,1037.191,1051.097,1046.82,1051.295z M1015.389,1047.37L900,1162.759L784.611,1047.37     c8.183-1.906,16.163-4.483,23.873-7.712L900,1131.175l91.516-91.516C999.226,1042.887,1007.207,1045.464,1015.389,1047.37z      M988.877,1038.527L900,1127.403l-88.877-88.876c7.101-3.136,13.959-6.833,20.526-11.058L900,1095.819l68.351-68.351     C974.918,1031.694,981.776,1035.391,988.877,1038.527z M966.068,1025.981L900,1092.048l-66.068-66.067     c6.195-4.146,12.116-8.775,17.719-13.866L900,1060.464l48.349-48.349C953.951,1017.206,959.873,1021.835,966.068,1025.981z      M900,1056.692l-46.395-46.394c1.147-1.079,2.285-2.171,3.404-3.289c4.191-4.191,8.1-8.588,11.73-13.162L900,1025.108     l31.262-31.262c3.63,4.574,7.539,8.971,11.73,13.162c1.118,1.119,2.256,2.21,3.404,3.289L900,1056.692z"/>
			<g>
				<path style="fill:#e1f1e0;" d="M957.435,985.891c21.658,23.325,50.957,37.547,82.498,40.045l0.613,0.048L1166.53,900      l-125.985-125.984l-0.613,0.048c-31.541,2.498-60.84,16.72-82.498,40.045c-21.775,23.452-33.768,53.955-33.768,85.891      S935.659,962.439,957.435,985.891z M1039.531,776.773L1162.759,900l-123.228,123.227      c-63.528-5.35-113.198-59.359-113.198-123.227S976.003,782.122,1039.531,776.773z"/>
				<path style="fill:#e1f1e0;" d="M975.755,968.879c14.827,15.969,33.872,26.563,55.076,30.637l0.694,0.133l99.65-99.65      l-99.65-99.65l-0.694,0.133c-21.204,4.075-40.249,14.669-55.076,30.637c-17.468,18.812-27.088,43.274-27.088,68.879      S958.287,950.067,975.755,968.879z M977.709,832.935c14.277-15.376,32.566-25.634,52.932-29.697L1127.403,900l-96.762,96.762      c-20.366-4.063-38.656-14.321-52.932-29.697C960.7,948.747,951.333,924.93,951.333,900S960.7,851.253,977.709,832.935z"/>
				<path style="fill:#e1f1e0;" d="M994.075,951.869c8.229,8.862,18.033,15.467,29.14,19.631l0.804,0.301L1095.819,900      l-71.801-71.801l-0.804,0.301c-11.107,4.164-20.911,10.769-29.14,19.631c-13.16,14.173-20.408,32.594-20.408,51.868      C973.667,919.274,980.914,937.695,994.075,951.869z M996.029,849.946c7.746-8.343,16.934-14.612,27.321-18.644L1092.048,900      l-68.697,68.697c-10.387-4.031-19.575-10.301-27.321-18.643c-12.701-13.679-19.696-31.455-19.696-50.054      C976.333,881.4,983.328,863.624,996.029,849.946z"/>
				<path style="fill:#e1f1e0;" d="M1018.39,940.407l0.931,0.736L1060.464,900l-41.143-41.143l-0.931,0.736      c-2.104,1.664-4.121,3.531-5.995,5.549c-8.853,9.534-13.728,21.913-13.728,34.857c0,12.944,4.876,25.323,13.729,34.858      C1014.269,936.875,1016.286,938.742,1018.39,940.407z M1014.349,866.957c1.506-1.622,3.109-3.141,4.775-4.526L1056.692,900      l-37.568,37.568c-1.667-1.385-3.269-2.904-4.774-4.525c-8.394-9.04-13.016-20.775-13.016-33.043      S1005.956,875.997,1014.349,866.957z"/>
				<path style="fill:#e1f1e0;" d="M900,900c0,82.843,67.157,150,150,150l150-150l-150-150C967.157,750,900,817.157,900,900z       M1049.455,751.34L1198.115,900l-148.66,148.66c-81.725-0.296-148.122-66.867-148.122-148.66S967.73,751.636,1049.455,751.34z"/>
			</g>
			<g>
				<path style="fill:#e1f1e0;" d="M842.565,814.109c-21.658-23.325-50.957-37.547-82.498-40.045l-0.613-0.048L633.47,900      l125.985,125.984l0.613-0.048c31.541-2.498,60.84-16.72,82.498-40.045c21.775-23.452,33.768-53.955,33.768-85.891      S864.341,837.561,842.565,814.109z M760.469,1023.227L637.241,900l123.228-123.227c63.528,5.35,113.198,59.359,113.198,123.227      S823.997,1017.878,760.469,1023.227z"/>
				<path style="fill:#e1f1e0;" d="M824.245,831.121c-14.827-15.969-33.872-26.563-55.076-30.637l-0.694-0.133L668.825,900      l99.65,99.65l0.694-0.133c21.204-4.075,40.249-14.669,55.076-30.637c17.468-18.812,27.088-43.274,27.088-68.879      S841.713,849.933,824.245,831.121z M822.291,967.065c-14.277,15.376-32.566,25.634-52.932,29.697L672.597,900l96.762-96.762      c20.366,4.063,38.656,14.321,52.932,29.697C839.3,851.253,848.667,875.07,848.667,900S839.3,948.747,822.291,967.065z"/>
				<path style="fill:#e1f1e0;" d="M805.925,848.131c-8.229-8.862-18.033-15.467-29.14-19.631l-0.804-0.301L704.181,900      l71.801,71.801l0.804-0.301c11.107-4.164,20.911-10.769,29.14-19.631c13.16-14.173,20.408-32.594,20.408-51.868      C826.333,880.726,819.086,862.305,805.925,848.131z M803.971,950.054c-7.746,8.343-16.934,14.612-27.321,18.644L707.952,900      l68.697-68.697c10.387,4.031,19.575,10.301,27.321,18.643c12.701,13.679,19.696,31.455,19.696,50.054      C823.667,918.6,816.672,936.376,803.971,950.054z"/>
				<path style="fill:#e1f1e0;" d="M781.61,859.593l-0.931-0.736L739.536,900l41.143,41.143l0.931-0.736      c2.104-1.664,4.121-3.531,5.995-5.549c8.853-9.534,13.728-21.913,13.728-34.857c0-12.944-4.876-25.323-13.729-34.858      C785.731,863.125,783.714,861.258,781.61,859.593z M785.651,933.043c-1.506,1.622-3.109,3.141-4.775,4.526L743.308,900      l37.568-37.568c1.667,1.385,3.269,2.904,4.774,4.525c8.394,9.04,13.016,20.775,13.016,33.043S794.044,924.003,785.651,933.043z"/>
				<path style="fill:#e1f1e0;" d="M900,900c0-82.843-67.157-150-150-150L600,900l150,150C832.843,1050,900,982.843,900,900z       M750.545,1048.66L601.885,900l148.66-148.66c81.725,0.296,148.121,66.867,148.121,148.66S832.27,1048.364,750.545,1048.66z"/>
			</g>
			<path style="fill:#e1f1e0;" d="M750,750c82.843,0,150,67.157,150,150c0-82.843,67.157-150,150-150L900,600L750,750z M900,879.758     c-1.128-8.491-2.97-16.813-5.485-24.899l5.485-5.485l5.485,5.485C902.97,862.945,901.128,871.267,900,879.758z M906.404,852.006     L900,845.602l-6.404,6.404c-2.541-7.628-5.69-15.034-9.426-22.159L900,814.019l15.83,15.829     C912.094,836.972,908.945,844.378,906.404,852.006z M917.144,827.392L900,810.247l-17.144,17.145     c-3.645-6.646-7.81-13.034-12.466-19.118l29.61-29.61l29.61,29.61C924.955,814.358,920.789,820.745,917.144,827.392z      M942.991,792.991c-4.191,4.191-8.1,8.588-11.73,13.162L900,774.892l-31.262,31.262c-3.63-4.574-7.539-8.971-11.73-13.162     c-1.118-1.119-2.256-2.21-3.404-3.289L900,743.308l46.395,46.394C945.248,790.781,944.11,791.873,942.991,792.991z      M948.349,787.885L900,739.536l-48.349,48.349c-5.602-5.091-11.524-9.72-17.719-13.866L900,707.952l66.068,66.067     C959.873,778.165,953.951,782.794,948.349,787.885z M968.351,772.531L900,704.181l-68.351,68.351     c-6.567-4.225-13.425-7.922-20.526-11.058L900,672.597l88.877,88.877C981.776,764.609,974.918,768.306,968.351,772.531z      M991.516,760.342L900,668.825l-91.516,91.516c-7.71-3.229-15.69-5.806-23.873-7.712L900,637.241l115.389,115.389     C1007.207,754.536,999.226,757.112,991.516,760.342z M1018.476,751.946L900,633.47L781.524,751.946     c-9.236-1.947-18.714-3.044-28.344-3.241L900,601.885l146.82,146.82C1037.191,748.903,1027.713,749.999,1018.476,751.946z"/>
		</g>
		<g>
			<path style="fill:#e1f1e0;" d="M300,900c0,82.843-67.157,150-150,150l150,150l150-150C367.157,1050,300,982.843,300,900z      M300,920.242c1.128,8.491,2.97,16.813,5.485,24.899L300,950.626l-5.485-5.485C297.03,937.055,298.872,928.733,300,920.242z      M293.596,947.994l6.404,6.404l6.404-6.404c2.541,7.628,5.69,15.034,9.426,22.159L300,985.981l-15.83-15.829     C287.906,963.028,291.055,955.622,293.596,947.994z M282.856,972.608L300,989.753l17.144-17.145     c3.645,6.646,7.81,13.034,12.466,19.118L300,1021.337l-29.611-29.61C275.045,985.642,279.211,979.255,282.856,972.608z      M446.82,1051.295L300,1198.115l-146.82-146.82c9.629-0.197,19.107-1.294,28.344-3.241L300,1166.53l118.476-118.477     C427.713,1050.001,437.191,1051.097,446.82,1051.295z M415.389,1047.37L300,1162.759L184.611,1047.37     c8.183-1.906,16.163-4.483,23.873-7.712L300,1131.175l91.516-91.516C399.226,1042.887,407.207,1045.464,415.389,1047.37z      M388.877,1038.527L300,1127.403l-88.877-88.876c7.101-3.136,13.959-6.833,20.526-11.058L300,1095.819l68.351-68.351     C374.918,1031.694,381.776,1035.391,388.877,1038.527z M366.068,1025.981L300,1092.048l-66.068-66.067     c6.195-4.146,12.116-8.775,17.719-13.866L300,1060.464l48.349-48.349C353.952,1017.206,359.873,1021.835,366.068,1025.981z      M300,1056.692l-46.395-46.394c1.147-1.079,2.285-2.171,3.403-3.289c4.191-4.191,8.1-8.588,11.73-13.162L300,1025.108     l31.262-31.262c3.63,4.574,7.539,8.971,11.73,13.162c1.118,1.119,2.257,2.21,3.404,3.289L300,1056.692z"/>
			<g>
				<path style="fill:#e1f1e0;" d="M357.435,985.891c21.658,23.325,50.957,37.547,82.498,40.045l0.613,0.048L566.53,900      L440.546,774.016l-0.613,0.048c-31.541,2.498-60.84,16.72-82.498,40.045c-21.775,23.452-33.768,53.955-33.768,85.891      S335.659,962.439,357.435,985.891z M439.531,776.773L562.759,900l-123.227,123.227c-63.528-5.35-113.198-59.359-113.198-123.227      S376.003,782.122,439.531,776.773z"/>
				<path style="fill:#e1f1e0;" d="M375.755,968.879c14.827,15.969,33.872,26.563,55.076,30.637l0.694,0.133l99.65-99.65      l-99.65-99.65l-0.694,0.133c-21.204,4.075-40.249,14.669-55.076,30.637c-17.468,18.812-27.088,43.274-27.088,68.879      S358.287,950.067,375.755,968.879z M377.709,832.935c14.277-15.376,32.566-25.634,52.932-29.697L527.403,900l-96.762,96.762      c-20.366-4.063-38.656-14.321-52.932-29.697C360.7,948.747,351.333,924.93,351.333,900S360.7,851.253,377.709,832.935z"/>
				<path style="fill:#e1f1e0;" d="M394.075,951.869c8.229,8.862,18.033,15.467,29.14,19.631l0.804,0.301L495.819,900      l-71.801-71.801l-0.804,0.301c-11.107,4.164-20.911,10.769-29.14,19.631c-13.16,14.173-20.408,32.594-20.408,51.868      C373.667,919.274,380.914,937.695,394.075,951.869z M396.029,849.946c7.746-8.343,16.934-14.612,27.321-18.644L492.048,900      l-68.697,68.697c-10.387-4.031-19.575-10.301-27.321-18.643c-12.701-13.679-19.696-31.455-19.696-50.054      C376.333,881.4,383.328,863.624,396.029,849.946z"/>
				<path style="fill:#e1f1e0;" d="M418.39,940.407l0.931,0.736L460.464,900l-41.143-41.143l-0.931,0.736      c-2.104,1.664-4.121,3.531-5.995,5.549c-8.853,9.534-13.728,21.913-13.728,34.857c0,12.944,4.876,25.323,13.729,34.858      C414.269,936.875,416.286,938.742,418.39,940.407z M414.349,866.957c1.506-1.622,3.109-3.141,4.775-4.526L456.692,900      l-37.568,37.568c-1.667-1.385-3.269-2.904-4.774-4.525c-8.394-9.04-13.016-20.775-13.016-33.043      S405.956,875.997,414.349,866.957z"/>
				<path style="fill:#e1f1e0;" d="M300,900c0,82.843,67.157,150,150,150l150-150L450,750C367.157,750,300,817.157,300,900z       M449.455,751.34L598.115,900l-148.66,148.66c-81.725-0.296-148.121-66.867-148.121-148.66S367.73,751.636,449.455,751.34z"/>
			</g>
			<g>
				<path style="fill:#e1f1e0;" d="M242.565,814.109c-21.658-23.325-50.957-37.547-82.498-40.045l-0.613-0.048L33.47,900      l125.985,125.984l0.613-0.048c31.541-2.498,60.84-16.72,82.498-40.045c21.775-23.452,33.768-53.955,33.768-85.891      S264.341,837.561,242.565,814.109z M160.469,1023.227L37.241,900l123.228-123.227c63.528,5.35,113.198,59.359,113.198,123.227      S223.997,1017.878,160.469,1023.227z"/>
				<path style="fill:#e1f1e0;" d="M224.245,831.121c-14.827-15.969-33.872-26.563-55.076-30.637l-0.694-0.133L68.825,900      l99.65,99.65l0.694-0.133c21.204-4.075,40.249-14.669,55.076-30.637c17.468-18.812,27.088-43.274,27.088-68.879      S241.713,849.933,224.245,831.121z M222.291,967.065c-14.277,15.376-32.566,25.634-52.932,29.697L72.597,900l96.762-96.762      c20.366,4.063,38.656,14.321,52.932,29.697C239.3,851.253,248.667,875.07,248.667,900S239.3,948.747,222.291,967.065z"/>
				<path style="fill:#e1f1e0;" d="M205.925,848.131c-8.229-8.862-18.033-15.467-29.14-19.631l-0.804-0.301L104.181,900      l71.801,71.801l0.804-0.301c11.107-4.164,20.911-10.769,29.14-19.631c13.161-14.173,20.408-32.594,20.408-51.868      C226.333,880.726,219.086,862.305,205.925,848.131z M203.971,950.054c-7.746,8.343-16.934,14.612-27.321,18.644L107.952,900      l68.697-68.697c10.387,4.031,19.575,10.301,27.321,18.643c12.701,13.679,19.696,31.455,19.696,50.054      C223.667,918.6,216.672,936.376,203.971,950.054z"/>
				<path style="fill:#e1f1e0;" d="M181.61,859.593l-0.931-0.736L139.536,900l41.143,41.143l0.931-0.736      c2.104-1.664,4.121-3.531,5.995-5.549c8.853-9.534,13.728-21.913,13.728-34.857c0-12.944-4.876-25.323-13.729-34.858      C185.731,863.125,183.714,861.258,181.61,859.593z M185.651,933.043c-1.506,1.622-3.109,3.141-4.775,4.526L143.308,900      l37.568-37.568c1.667,1.385,3.269,2.904,4.774,4.525c8.394,9.04,13.016,20.775,13.016,33.043S194.044,924.003,185.651,933.043z"/>
				<path style="fill:#e1f1e0;" d="M300,900c0-82.843-67.157-150-150-150L0,900l150,150C232.843,1050,300,982.843,300,900z       M150.545,1048.66L1.885,900l148.66-148.66c81.725,0.296,148.121,66.867,148.121,148.66S232.27,1048.364,150.545,1048.66z"/>
			</g>
			<path style="fill:#e1f1e0;" d="M150,750c82.843,0,150,67.157,150,150c0-82.843,67.157-150,150-150L300,600L150,750z M300,879.758     c-1.128-8.491-2.97-16.813-5.485-24.899l5.485-5.485l5.485,5.485C302.97,862.945,301.128,871.267,300,879.758z M306.404,852.006     L300,845.602l-6.404,6.404c-2.541-7.628-5.69-15.034-9.426-22.159L300,814.019l15.83,15.829     C312.094,836.972,308.945,844.378,306.404,852.006z M317.144,827.392L300,810.247l-17.144,17.145     c-3.645-6.646-7.81-13.034-12.466-19.118L300,778.663l29.611,29.61C324.955,814.358,320.789,820.745,317.144,827.392z      M342.991,792.991c-4.191,4.191-8.1,8.588-11.73,13.162L300,774.892l-31.262,31.262c-3.63-4.574-7.539-8.971-11.73-13.162     c-1.118-1.119-2.256-2.21-3.403-3.289L300,743.308l46.395,46.394C345.248,790.781,344.11,791.873,342.991,792.991z      M348.349,787.885L300,739.536l-48.349,48.349c-5.603-5.091-11.524-9.72-17.719-13.866L300,707.952l66.068,66.067     C359.873,778.165,353.952,782.794,348.349,787.885z M368.351,772.531L300,704.181l-68.351,68.351     c-6.567-4.225-13.425-7.922-20.526-11.058L300,672.597l88.877,88.877C381.776,764.609,374.918,768.306,368.351,772.531z      M391.516,760.342L300,668.825l-91.516,91.516c-7.71-3.229-15.691-5.806-23.873-7.712L300,637.241L415.389,752.63     C407.207,754.536,399.226,757.112,391.516,760.342z M418.476,751.946L300,633.47L181.524,751.946     c-9.236-1.947-18.714-3.044-28.344-3.241L300,601.885l146.82,146.82C437.191,748.903,427.713,749.999,418.476,751.946z"/>
		</g>
		<g>
			<g>
				<path style="fill:#e1f1e0;" d="M1742.565,514.109c-21.658-23.325-50.957-37.547-82.498-40.045l-0.613-0.048L1533.47,600      l125.985,125.984l0.613-0.048c31.541-2.498,60.84-16.72,82.498-40.045c21.775-23.452,33.768-53.955,33.768-85.891      S1764.341,537.561,1742.565,514.109z M1660.469,723.227L1537.241,600l123.228-123.228      c63.528,5.35,113.198,59.359,113.198,123.228S1723.997,717.878,1660.469,723.227z"/>
				<path style="fill:#e1f1e0;" d="M1724.245,531.121c-14.827-15.969-33.872-26.563-55.076-30.637l-0.694-0.133l-99.65,99.65      l99.65,99.65l0.694-0.133c21.204-4.075,40.249-14.669,55.076-30.637c17.468-18.812,27.088-43.274,27.088-68.879      S1741.713,549.933,1724.245,531.121z M1722.291,667.065c-14.277,15.376-32.566,25.634-52.932,29.697L1572.597,600l96.762-96.762      c20.366,4.063,38.656,14.321,52.932,29.697c17.009,18.317,26.376,42.135,26.376,67.065S1739.3,648.747,1722.291,667.065z"/>
				<path style="fill:#e1f1e0;" d="M1705.925,548.131c-8.229-8.862-18.033-15.467-29.14-19.631l-0.804-0.301L1604.181,600      l71.801,71.801l0.804-0.301c11.107-4.164,20.911-10.769,29.14-19.631c13.161-14.173,20.408-32.594,20.408-51.868      C1726.333,580.726,1719.086,562.305,1705.925,548.131z M1703.971,650.054c-7.746,8.343-16.934,14.612-27.321,18.644      L1607.952,600l68.697-68.697c10.387,4.031,19.575,10.301,27.321,18.643c12.701,13.679,19.696,31.455,19.696,50.054      C1723.667,618.6,1716.672,636.376,1703.971,650.054z"/>
				<path style="fill:#e1f1e0;" d="M1681.61,559.593l-0.931-0.736L1639.536,600l41.143,41.143l0.931-0.736      c2.104-1.664,4.121-3.531,5.995-5.549c8.853-9.534,13.728-21.913,13.728-34.857c0-12.944-4.876-25.323-13.728-34.858      C1685.731,563.125,1683.714,561.258,1681.61,559.593z M1685.651,633.043c-1.506,1.622-3.109,3.141-4.775,4.526L1643.308,600      l37.568-37.568c1.667,1.385,3.269,2.904,4.774,4.525c8.394,9.04,13.016,20.775,13.016,33.043S1694.044,624.003,1685.651,633.043      z"/>
				<path style="fill:#e1f1e0;" d="M1800,600c0-82.843-67.157-150-150-150l-150,150l150,150C1732.843,750,1800,682.843,1800,600z       M1650.545,748.66L1501.885,600l148.66-148.66c81.725,0.296,148.122,66.867,148.122,148.66S1732.27,748.364,1650.545,748.66z"/>
			</g>
			<path style="fill:#e1f1e0;" d="M1653.18,751.295c9.629-0.197,19.107-1.294,28.344-3.241L1800,866.53v-3.771L1684.611,747.37     c8.183-1.906,16.163-4.482,23.873-7.712L1800,831.175v-3.771l-88.877-88.876c7.101-3.136,13.959-6.833,20.526-11.059     L1800,795.819v-3.771l-66.068-66.067c6.195-4.146,12.116-8.775,17.719-13.866L1800,760.464v-3.772l-46.395-46.394     c1.147-1.079,2.285-2.171,3.403-3.289c4.191-4.191,8.1-8.588,11.73-13.162L1800,725.108v-3.771l-29.61-29.61     c4.656-6.085,8.822-12.472,12.466-19.118L1800,689.753v-3.772l-15.83-15.829c3.736-7.124,6.885-14.531,9.426-22.159l6.403,6.404     v-3.772l-5.485-5.485c2.515-8.086,4.357-16.408,5.485-24.899V600c0,82.843-67.157,150-150,150l150,150v-1.885L1653.18,751.295z"/>
			<path style="fill:#e1f1e0;" d="M1794.515,554.859l5.485-5.485v-3.772l-6.403,6.404c-2.541-7.628-5.69-15.034-9.426-22.159     l15.83-15.829v-3.772l-17.144,17.145c-3.645-6.646-7.81-13.034-12.466-19.118l29.61-29.61v-3.771l-31.262,31.262     c-3.63-4.574-7.538-8.971-11.73-13.162c-1.119-1.118-2.256-2.21-3.403-3.289L1800,443.308v-3.771l-48.349,48.349     c-5.603-5.091-11.524-9.72-17.719-13.866L1800,407.952v-3.771l-68.351,68.351c-6.567-4.225-13.425-7.922-20.526-11.058     L1800,372.597v-3.772l-91.516,91.517c-7.71-3.229-15.69-5.806-23.873-7.712L1800,337.241v-3.772l-118.476,118.477     c-9.236-1.947-18.714-3.044-28.344-3.241L1800,301.885V300l-150,150c82.843,0,150,67.157,150,150v-20.242     C1798.872,571.267,1797.03,562.945,1794.515,554.859z"/>
		</g>
		<g>
			<path style="fill:#e1f1e0;" d="M1200,600c0,82.843-67.157,150-150,150l150,150l150-150C1267.157,750,1200,682.843,1200,600z      M1200,620.242c1.128,8.491,2.97,16.813,5.485,24.899l-5.485,5.485l-5.485-5.485C1197.03,637.055,1198.872,628.733,1200,620.242z      M1193.597,647.994l6.403,6.404l6.403-6.404c2.541,7.628,5.69,15.034,9.426,22.159L1200,685.981l-15.83-15.829     C1187.906,663.028,1191.055,655.622,1193.597,647.994z M1182.856,672.608L1200,689.753l17.144-17.145     c3.645,6.646,7.81,13.034,12.466,19.118l-29.61,29.61l-29.61-29.61C1175.045,685.642,1179.211,679.255,1182.856,672.608z      M1346.82,751.295L1200,898.115l-146.82-146.82c9.629-0.197,19.107-1.294,28.344-3.241L1200,866.53l118.476-118.477     C1327.713,750.001,1337.191,751.097,1346.82,751.295z M1315.389,747.37L1200,862.759L1084.611,747.37     c8.183-1.906,16.163-4.482,23.873-7.712L1200,831.175l91.516-91.516C1299.226,742.888,1307.207,745.464,1315.389,747.37z      M1288.877,738.527L1200,827.403l-88.877-88.876c7.101-3.136,13.959-6.833,20.526-11.059L1200,795.819l68.351-68.351     C1274.918,731.694,1281.776,735.391,1288.877,738.527z M1266.068,725.981L1200,792.048l-66.068-66.067     c6.195-4.146,12.116-8.775,17.719-13.866L1200,760.464l48.349-48.349C1253.952,717.206,1259.873,721.835,1266.068,725.981z      M1200,756.692l-46.395-46.394c1.147-1.079,2.285-2.171,3.403-3.289c4.191-4.191,8.1-8.588,11.73-13.162L1200,725.108     l31.262-31.262c3.63,4.574,7.538,8.971,11.73,13.162c1.119,1.119,2.256,2.21,3.403,3.289L1200,756.692z"/>
			<g>
				<path style="fill:#e1f1e0;" d="M1257.435,685.891c21.658,23.325,50.957,37.547,82.498,40.045l0.613,0.048L1466.53,600      l-125.985-125.984l-0.613,0.048c-31.541,2.498-60.84,16.72-82.498,40.045c-21.775,23.452-33.768,53.955-33.768,85.891      S1235.659,662.439,1257.435,685.891z M1339.531,476.772L1462.759,600l-123.228,123.227      c-63.528-5.35-113.198-59.359-113.198-123.227S1276.003,482.122,1339.531,476.772z"/>
				<path style="fill:#e1f1e0;" d="M1275.755,668.879c14.827,15.969,33.872,26.563,55.076,30.637l0.694,0.133l99.65-99.65      l-99.65-99.65l-0.694,0.133c-21.204,4.075-40.249,14.669-55.076,30.637c-17.468,18.812-27.088,43.274-27.088,68.879      S1258.287,650.067,1275.755,668.879z M1277.709,532.935c14.277-15.376,32.566-25.634,52.932-29.697L1427.403,600l-96.762,96.762      c-20.366-4.063-38.656-14.321-52.932-29.697c-17.009-18.317-26.376-42.135-26.376-67.065S1260.7,551.253,1277.709,532.935z"/>
				<path style="fill:#e1f1e0;" d="M1294.075,651.869c8.229,8.862,18.033,15.467,29.14,19.631l0.804,0.301L1395.819,600      l-71.801-71.801l-0.804,0.301c-11.107,4.164-20.911,10.769-29.14,19.631c-13.161,14.173-20.408,32.594-20.408,51.868      C1273.667,619.274,1280.914,637.695,1294.075,651.869z M1296.029,549.946c7.746-8.343,16.934-14.612,27.321-18.644L1392.048,600      l-68.697,68.697c-10.387-4.031-19.575-10.301-27.321-18.643c-12.701-13.679-19.696-31.455-19.696-50.054      C1276.333,581.4,1283.328,563.624,1296.029,549.946z"/>
				<path style="fill:#e1f1e0;" d="M1318.39,640.407l0.931,0.736L1360.464,600l-41.143-41.143l-0.931,0.736      c-2.104,1.664-4.121,3.531-5.995,5.549c-8.853,9.534-13.728,21.913-13.728,34.857c0,12.944,4.876,25.323,13.728,34.858      C1314.269,636.875,1316.286,638.742,1318.39,640.407z M1314.349,566.957c1.506-1.622,3.109-3.141,4.775-4.526L1356.692,600      l-37.568,37.568c-1.667-1.385-3.269-2.904-4.774-4.525c-8.394-9.04-13.016-20.775-13.016-33.043      S1305.956,575.997,1314.349,566.957z"/>
				<path style="fill:#e1f1e0;" d="M1200,600c0,82.843,67.157,150,150,150l150-150l-150-150C1267.157,450,1200,517.157,1200,600z       M1349.455,451.34L1498.115,600l-148.66,148.66c-81.725-0.296-148.122-66.867-148.122-148.66S1267.73,451.636,1349.455,451.34z"/>
			</g>
			<g>
				<path style="fill:#e1f1e0;" d="M1142.565,514.109c-21.658-23.325-50.957-37.547-82.498-40.045l-0.613-0.048L933.47,600      l125.985,125.984l0.613-0.048c31.541-2.498,60.84-16.72,82.498-40.045c21.775-23.452,33.768-53.955,33.768-85.891      S1164.341,537.561,1142.565,514.109z M1060.469,723.227L937.241,600l123.228-123.228      c63.528,5.35,113.198,59.359,113.198,123.228S1123.997,717.878,1060.469,723.227z"/>
				<path style="fill:#e1f1e0;" d="M1124.245,531.121c-14.827-15.969-33.872-26.563-55.076-30.637l-0.694-0.133L968.825,600      l99.65,99.65l0.694-0.133c21.204-4.075,40.249-14.669,55.076-30.637c17.468-18.812,27.088-43.274,27.088-68.879      S1141.713,549.933,1124.245,531.121z M1122.291,667.065c-14.277,15.376-32.566,25.634-52.932,29.697L972.597,600l96.762-96.762      c20.366,4.063,38.656,14.321,52.932,29.697c17.009,18.317,26.376,42.135,26.376,67.065S1139.3,648.747,1122.291,667.065z"/>
				<path style="fill:#e1f1e0;" d="M1105.925,548.131c-8.229-8.862-18.033-15.467-29.14-19.631l-0.804-0.301L1004.181,600      l71.801,71.801l0.804-0.301c11.107-4.164,20.911-10.769,29.14-19.631c13.161-14.173,20.408-32.594,20.408-51.868      C1126.333,580.726,1119.086,562.305,1105.925,548.131z M1103.971,650.054c-7.746,8.343-16.934,14.612-27.321,18.644      L1007.952,600l68.697-68.697c10.387,4.031,19.575,10.301,27.321,18.643c12.701,13.679,19.696,31.455,19.696,50.054      C1123.667,618.6,1116.672,636.376,1103.971,650.054z"/>
				<path style="fill:#e1f1e0;" d="M1081.61,559.593l-0.931-0.736L1039.536,600l41.143,41.143l0.931-0.736      c2.104-1.664,4.121-3.531,5.995-5.549c8.853-9.534,13.728-21.913,13.728-34.857c0-12.944-4.876-25.323-13.728-34.858      C1085.731,563.125,1083.714,561.258,1081.61,559.593z M1085.651,633.043c-1.506,1.622-3.109,3.141-4.775,4.526L1043.308,600      l37.568-37.568c1.667,1.385,3.269,2.904,4.774,4.525c8.394,9.04,13.016,20.775,13.016,33.043S1094.044,624.003,1085.651,633.043      z"/>
				<path style="fill:#e1f1e0;" d="M1200,600c0-82.843-67.157-150-150-150L900,600l150,150C1132.843,750,1200,682.843,1200,600z       M1050.545,748.66L901.885,600l148.66-148.66c81.725,0.296,148.122,66.867,148.122,148.66S1132.27,748.364,1050.545,748.66z"/>
			</g>
			<path style="fill:#e1f1e0;" d="M1050,450c82.843,0,150,67.157,150,150c0-82.843,67.157-150,150-150l-150-150L1050,450z      M1200,579.758c-1.128-8.491-2.97-16.813-5.485-24.899l5.485-5.485l5.485,5.485C1202.97,562.945,1201.128,571.267,1200,579.758z      M1206.403,552.006l-6.403-6.404l-6.403,6.404c-2.541-7.628-5.69-15.034-9.426-22.159l15.83-15.829l15.83,15.829     C1212.094,536.972,1208.945,544.378,1206.403,552.006z M1217.144,527.392L1200,510.247l-17.144,17.145     c-3.645-6.646-7.81-13.034-12.466-19.118l29.61-29.61l29.61,29.61C1224.955,514.358,1220.789,520.745,1217.144,527.392z      M1242.991,492.991c-4.191,4.191-8.1,8.588-11.73,13.162L1200,474.892l-31.262,31.262c-3.63-4.574-7.538-8.971-11.73-13.162     c-1.119-1.118-2.256-2.21-3.403-3.289L1200,443.308l46.395,46.394C1245.248,490.781,1244.11,491.873,1242.991,492.991z      M1248.349,487.885L1200,439.536l-48.349,48.349c-5.603-5.091-11.524-9.72-17.719-13.866L1200,407.952l66.068,66.067     C1259.873,478.165,1253.952,482.794,1248.349,487.885z M1268.351,472.531L1200,404.181l-68.351,68.351     c-6.567-4.225-13.425-7.922-20.526-11.058L1200,372.597l88.877,88.876C1281.776,464.609,1274.918,468.306,1268.351,472.531z      M1291.516,460.342L1200,368.825l-91.516,91.517c-7.71-3.229-15.69-5.806-23.873-7.712L1200,337.241l115.389,115.389     C1307.207,454.535,1299.226,457.112,1291.516,460.342z M1318.476,451.947L1200,333.47l-118.476,118.477     c-9.236-1.947-18.714-3.044-28.344-3.241L1200,301.885l146.82,146.82C1337.191,448.903,1327.713,449.999,1318.476,451.947z"/>
		</g>
		<g>
			<path style="fill:#e1f1e0;" d="M600,600c0,82.843-67.157,150-150,150l150,150l150-150C667.157,750,600,682.843,600,600z      M600,620.242c1.128,8.491,2.97,16.813,5.485,24.899L600,650.626l-5.485-5.485C597.03,637.055,598.872,628.733,600,620.242z      M593.596,647.994l6.404,6.404l6.404-6.404c2.541,7.628,5.69,15.034,9.426,22.159L600,685.981l-15.83-15.829     C587.906,663.028,591.055,655.622,593.596,647.994z M582.856,672.608L600,689.753l17.144-17.145     c3.645,6.646,7.81,13.034,12.466,19.118L600,721.337l-29.61-29.61C575.045,685.642,579.211,679.255,582.856,672.608z      M746.82,751.295L600,898.115l-146.82-146.82c9.629-0.197,19.107-1.294,28.344-3.241L600,866.53l118.476-118.477     C727.713,750.001,737.191,751.097,746.82,751.295z M715.389,747.37L600,862.759L484.611,747.37     c8.183-1.906,16.163-4.482,23.873-7.712L600,831.175l91.516-91.516C699.226,742.888,707.207,745.464,715.389,747.37z      M688.877,738.527L600,827.403l-88.877-88.876c7.101-3.136,13.959-6.833,20.526-11.059L600,795.819l68.351-68.351     C674.918,731.694,681.776,735.391,688.877,738.527z M666.068,725.981L600,792.048l-66.068-66.067     c6.195-4.146,12.116-8.775,17.719-13.866L600,760.464l48.349-48.349C653.951,717.206,659.873,721.835,666.068,725.981z      M600,756.692l-46.395-46.394c1.147-1.079,2.285-2.171,3.404-3.289c4.191-4.191,8.1-8.588,11.73-13.162L600,725.108     l31.262-31.262c3.63,4.574,7.539,8.971,11.73,13.162c1.118,1.119,2.256,2.21,3.404,3.289L600,756.692z"/>
			<g>
				<path style="fill:#e1f1e0;" d="M657.435,685.891c21.658,23.325,50.957,37.547,82.498,40.045l0.613,0.048L866.53,600      L740.546,474.016l-0.613,0.048c-31.541,2.498-60.84,16.72-82.498,40.045c-21.775,23.452-33.768,53.955-33.768,85.891      S635.659,662.439,657.435,685.891z M739.531,476.772L862.759,600L739.531,723.227c-63.528-5.35-113.198-59.359-113.198-123.227      S676.003,482.122,739.531,476.772z"/>
				<path style="fill:#e1f1e0;" d="M675.755,668.879c14.827,15.969,33.872,26.563,55.076,30.637l0.694,0.133l99.65-99.65      l-99.65-99.65l-0.694,0.133c-21.204,4.075-40.249,14.669-55.076,30.637c-17.468,18.812-27.088,43.274-27.088,68.879      S658.287,650.067,675.755,668.879z M677.709,532.935c14.277-15.376,32.566-25.634,52.932-29.697L827.403,600l-96.762,96.762      c-20.366-4.063-38.656-14.321-52.932-29.697C660.7,648.747,651.333,624.93,651.333,600S660.7,551.253,677.709,532.935z"/>
				<path style="fill:#e1f1e0;" d="M694.075,651.869c8.229,8.862,18.033,15.467,29.14,19.631l0.804,0.301L795.819,600      l-71.801-71.801l-0.804,0.301c-11.107,4.164-20.911,10.769-29.14,19.631c-13.16,14.173-20.408,32.594-20.408,51.868      C673.667,619.274,680.914,637.695,694.075,651.869z M696.029,549.946c7.746-8.343,16.934-14.612,27.321-18.644L792.048,600      l-68.697,68.697c-10.387-4.031-19.575-10.301-27.321-18.643c-12.701-13.679-19.696-31.455-19.696-50.054      C676.333,581.4,683.328,563.624,696.029,549.946z"/>
				<path style="fill:#e1f1e0;" d="M718.39,640.407l0.931,0.736L760.464,600l-41.143-41.143l-0.931,0.736      c-2.104,1.664-4.121,3.531-5.995,5.549c-8.853,9.534-13.728,21.913-13.728,34.857c0,12.944,4.876,25.323,13.729,34.858      C714.269,636.875,716.286,638.742,718.39,640.407z M714.349,566.957c1.506-1.622,3.109-3.141,4.775-4.526L756.692,600      l-37.568,37.568c-1.667-1.385-3.269-2.904-4.774-4.525c-8.394-9.04-13.016-20.775-13.016-33.043      S705.956,575.997,714.349,566.957z"/>
				<path style="fill:#e1f1e0;" d="M600,600c0,82.843,67.157,150,150,150l150-150L750,450C667.157,450,600,517.157,600,600z       M749.455,451.34L898.115,600l-148.66,148.66C667.73,748.364,601.333,681.793,601.333,600S667.73,451.636,749.455,451.34z"/>
			</g>
			<g>
				<path style="fill:#e1f1e0;" d="M542.565,514.109c-21.658-23.325-50.957-37.547-82.498-40.045l-0.613-0.048L333.47,600      l125.985,125.984l0.613-0.048c31.541-2.498,60.84-16.72,82.498-40.045c21.775-23.452,33.768-53.955,33.768-85.891      S564.341,537.561,542.565,514.109z M460.469,723.227L337.241,600l123.228-123.228c63.528,5.35,113.198,59.359,113.198,123.228      S523.997,717.878,460.469,723.227z"/>
				<path style="fill:#e1f1e0;" d="M524.245,531.121c-14.827-15.969-33.872-26.563-55.076-30.637l-0.694-0.133L368.825,600      l99.65,99.65l0.694-0.133c21.204-4.075,40.249-14.669,55.076-30.637c17.468-18.812,27.088-43.274,27.088-68.879      S541.713,549.933,524.245,531.121z M522.291,667.065c-14.277,15.376-32.566,25.634-52.932,29.697L372.597,600l96.762-96.762      c20.366,4.063,38.656,14.321,52.932,29.697C539.3,551.253,548.667,575.07,548.667,600S539.3,648.747,522.291,667.065z"/>
				<path style="fill:#e1f1e0;" d="M505.925,548.131c-8.229-8.862-18.033-15.467-29.14-19.631l-0.804-0.301L404.181,600      l71.801,71.801l0.804-0.301c11.107-4.164,20.911-10.769,29.14-19.631c13.16-14.173,20.408-32.594,20.408-51.868      C526.333,580.726,519.086,562.305,505.925,548.131z M503.971,650.054c-7.746,8.343-16.934,14.612-27.321,18.644L407.952,600      l68.697-68.697c10.387,4.031,19.575,10.301,27.321,18.643c12.701,13.679,19.696,31.455,19.696,50.054      C523.667,618.6,516.672,636.376,503.971,650.054z"/>
				<path style="fill:#e1f1e0;" d="M481.61,559.593l-0.931-0.736L439.536,600l41.143,41.143l0.931-0.736      c2.104-1.664,4.121-3.531,5.995-5.549c8.853-9.534,13.728-21.913,13.728-34.857c0-12.944-4.876-25.323-13.729-34.858      C485.731,563.125,483.714,561.258,481.61,559.593z M485.651,633.043c-1.506,1.622-3.109,3.141-4.775,4.526L443.308,600      l37.568-37.568c1.667,1.385,3.269,2.904,4.774,4.525c8.394,9.04,13.016,20.775,13.016,33.043S494.044,624.003,485.651,633.043z"/>
				<path style="fill:#e1f1e0;" d="M600,600c0-82.843-67.157-150-150-150L300,600l150,150C532.843,750,600,682.843,600,600z       M450.545,748.66L301.885,600l148.66-148.66c81.725,0.296,148.121,66.867,148.121,148.66S532.27,748.364,450.545,748.66z"/>
			</g>
			<path style="fill:#e1f1e0;" d="M450,450c82.843,0,150,67.157,150,150c0-82.843,67.157-150,150-150L600,300L450,450z M600,579.758     c-1.128-8.491-2.97-16.813-5.485-24.899l5.485-5.485l5.485,5.485C602.97,562.945,601.128,571.267,600,579.758z M606.404,552.006     L600,545.602l-6.404,6.404c-2.541-7.628-5.69-15.034-9.426-22.159L600,514.019l15.83,15.829     C612.094,536.972,608.945,544.378,606.404,552.006z M617.144,527.392L600,510.247l-17.144,17.145     c-3.645-6.646-7.81-13.034-12.466-19.118l29.61-29.61l29.61,29.61C624.955,514.358,620.789,520.745,617.144,527.392z      M642.991,492.991c-4.191,4.191-8.1,8.588-11.73,13.162L600,474.892l-31.262,31.262c-3.63-4.574-7.539-8.971-11.73-13.162     c-1.118-1.118-2.256-2.21-3.404-3.289L600,443.308l46.395,46.394C645.248,490.781,644.11,491.873,642.991,492.991z      M648.349,487.885L600,439.536l-48.349,48.349c-5.602-5.091-11.524-9.72-17.719-13.866L600,407.952l66.068,66.067     C659.873,478.165,653.951,482.794,648.349,487.885z M668.351,472.531L600,404.181l-68.351,68.351     c-6.567-4.225-13.425-7.922-20.526-11.058L600,372.597l88.877,88.876C681.776,464.609,674.918,468.306,668.351,472.531z      M691.516,460.342L600,368.825l-91.516,91.517c-7.71-3.229-15.69-5.806-23.873-7.712L600,337.241L715.389,452.63     C707.207,454.535,699.226,457.112,691.516,460.342z M718.476,451.947L600,333.47L481.524,451.947     c-9.236-1.947-18.714-3.044-28.344-3.241L600,301.885l146.82,146.82C737.191,448.903,727.713,449.999,718.476,451.947z"/>
		</g>
		<g>
			<g>
				<path style="fill:#e1f1e0;" d="M57.435,685.891c21.658,23.325,50.957,37.547,82.498,40.045l0.613,0.048L266.53,600      L140.546,474.016l-0.613,0.048c-31.541,2.498-60.84,16.72-82.498,40.045C35.659,537.561,23.667,568.064,23.667,600      S35.659,662.439,57.435,685.891z M139.531,476.772L262.759,600L139.531,723.227C76.003,717.878,26.333,663.869,26.333,600      S76.003,482.122,139.531,476.772z"/>
				<path style="fill:#e1f1e0;" d="M75.755,668.879c14.827,15.969,33.872,26.563,55.076,30.637l0.694,0.133l99.65-99.65      l-99.65-99.65l-0.694,0.133c-21.204,4.075-40.249,14.669-55.076,30.637C58.287,549.933,48.667,574.395,48.667,600      S58.287,650.067,75.755,668.879z M77.709,532.935c14.277-15.376,32.566-25.634,52.932-29.697L227.403,600l-96.762,96.762      c-20.366-4.063-38.656-14.321-52.932-29.697C60.7,648.747,51.333,624.93,51.333,600S60.7,551.253,77.709,532.935z"/>
				<path style="fill:#e1f1e0;" d="M94.075,651.869c8.229,8.862,18.033,15.467,29.14,19.631l0.804,0.301L195.819,600l-71.801-71.801      l-0.804,0.301c-11.107,4.164-20.911,10.769-29.14,19.631C80.914,562.305,73.667,580.725,73.667,600      C73.667,619.274,80.914,637.695,94.075,651.869z M96.029,549.946c7.746-8.343,16.934-14.612,27.321-18.644L192.048,600      l-68.697,68.697c-10.387-4.031-19.575-10.301-27.321-18.643C83.328,636.376,76.333,618.599,76.333,600      C76.333,581.4,83.328,563.624,96.029,549.946z"/>
				<path style="fill:#e1f1e0;" d="M118.39,640.407l0.931,0.736L160.464,600l-41.143-41.143l-0.931,0.736      c-2.104,1.664-4.121,3.531-5.995,5.549c-8.853,9.534-13.728,21.913-13.728,34.857c0,12.944,4.876,25.323,13.729,34.858      C114.269,636.875,116.286,638.742,118.39,640.407z M114.349,566.957c1.506-1.622,3.109-3.141,4.775-4.526L156.692,600      l-37.568,37.568c-1.667-1.385-3.269-2.904-4.774-4.525c-8.394-9.04-13.016-20.775-13.016-33.043      S105.956,575.997,114.349,566.957z"/>
				<path style="fill:#e1f1e0;" d="M0,600c0,82.843,67.157,150,150,150l150-150L150,450C67.157,450,0,517.157,0,600z       M149.455,451.34L298.115,600l-148.66,148.66C67.73,748.364,1.333,681.793,1.333,600S67.73,451.636,149.455,451.34z"/>
			</g>
			<path style="fill:#e1f1e0;" d="M0,600v20.242c1.128,8.491,2.97,16.813,5.485,24.899L0,650.626v3.772l6.403-6.404     c2.541,7.628,5.69,15.034,9.426,22.159L0,685.981v3.772l17.144-17.145c3.645,6.646,7.81,13.034,12.466,19.118L0,721.337v3.771     l31.262-31.262c3.63,4.574,7.538,8.971,11.73,13.162c1.118,1.119,2.257,2.21,3.403,3.289L0,756.692v3.772l48.349-48.349     c5.602,5.091,11.524,9.721,17.718,13.866L0,792.048v3.771l68.351-68.351c6.567,4.225,13.425,7.923,20.526,11.059L0,827.403v3.771     l91.516-91.516c7.71,3.229,15.691,5.806,23.873,7.712L0,862.759v3.771l118.476-118.477c9.236,1.947,18.714,3.044,28.344,3.241     L0,898.115V900l150-150C67.157,750,0,682.843,0,600z"/>
			<path style="fill:#e1f1e0;" d="M150,450L0,300v1.885l146.82,146.82c-9.629,0.197-19.107,1.294-28.344,3.241L0,333.47v3.772     L115.389,452.63c-8.183,1.905-16.163,4.482-23.873,7.712L0,368.825v3.772l88.877,88.876c-7.101,3.136-13.959,6.833-20.526,11.058     L0,404.181v3.771l66.067,66.067c-6.195,4.146-12.116,8.775-17.718,13.866L0,439.536v3.771l46.395,46.394     c-1.147,1.079-2.285,2.171-3.403,3.289c-4.191,4.191-8.1,8.588-11.73,13.162L0,474.892v3.771l29.61,29.61     c-4.656,6.085-8.822,12.472-12.466,19.118L0,510.247v3.772l15.83,15.829c-3.736,7.124-6.885,14.531-9.426,22.159L0,545.602v3.772     l5.485,5.485C2.97,562.945,1.128,571.267,0,579.758V600C0,517.157,67.157,450,150,450z"/>
		</g>
		<g>
			<path style="fill:#e1f1e0;" d="M1500,300c0,82.843-67.157,150-150,150l150,150l150-150C1567.157,450,1500,382.843,1500,300z      M1500,320.242c1.128,8.491,2.97,16.813,5.485,24.899l-5.485,5.485l-5.485-5.485C1497.03,337.055,1498.872,328.733,1500,320.242z      M1493.597,347.994l6.403,6.404l6.403-6.404c2.541,7.628,5.69,15.034,9.426,22.158L1500,385.981l-15.83-15.829     C1487.906,363.028,1491.055,355.621,1493.597,347.994z M1482.856,372.608L1500,389.753l17.144-17.145     c3.645,6.646,7.81,13.034,12.466,19.118l-29.61,29.61l-29.61-29.61C1475.045,385.642,1479.211,379.255,1482.856,372.608z      M1646.82,451.295L1500,598.115l-146.82-146.82c9.629-0.197,19.107-1.294,28.344-3.241L1500,566.53l118.476-118.477     C1627.713,450.001,1637.191,451.097,1646.82,451.295z M1615.389,447.37L1500,562.759L1384.611,447.37     c8.183-1.905,16.163-4.482,23.873-7.712L1500,531.175l91.516-91.516C1599.226,442.888,1607.207,445.465,1615.389,447.37z      M1588.877,438.527L1500,527.403l-88.877-88.876c7.101-3.136,13.959-6.833,20.526-11.058L1500,495.819l68.351-68.351     C1574.918,431.694,1581.776,435.391,1588.877,438.527z M1566.068,425.981L1500,492.048l-66.068-66.067     c6.195-4.146,12.116-8.775,17.719-13.866L1500,460.464l48.349-48.349C1553.952,417.206,1559.873,421.835,1566.068,425.981z      M1500,456.692l-46.395-46.394c1.147-1.079,2.285-2.171,3.403-3.289c4.191-4.191,8.1-8.588,11.73-13.162L1500,425.108     l31.262-31.262c3.63,4.574,7.538,8.971,11.73,13.162c1.119,1.118,2.256,2.21,3.403,3.289L1500,456.692z"/>
			<g>
				<path style="fill:#e1f1e0;" d="M1557.435,385.891c21.658,23.325,50.957,37.547,82.498,40.045l0.613,0.048L1766.53,300      l-125.985-125.984l-0.613,0.049c-31.541,2.498-60.84,16.72-82.498,40.045c-21.775,23.451-33.768,53.955-33.768,85.891      S1535.659,362.439,1557.435,385.891z M1639.531,176.773L1762.759,300l-123.228,123.228      c-63.528-5.35-113.198-59.359-113.198-123.228S1576.003,182.122,1639.531,176.773z"/>
				<path style="fill:#e1f1e0;" d="M1575.755,368.879c14.827,15.968,33.872,26.563,55.076,30.637l0.694,0.133l99.65-99.65      l-99.65-99.65l-0.694,0.133c-21.204,4.075-40.249,14.669-55.076,30.637c-17.468,18.812-27.088,43.274-27.088,68.879      S1558.287,350.067,1575.755,368.879z M1577.709,232.935c14.277-15.376,32.566-25.634,52.932-29.697L1727.403,300l-96.762,96.762      c-20.366-4.063-38.656-14.321-52.932-29.697c-17.009-18.317-26.376-42.135-26.376-67.065S1560.7,251.253,1577.709,232.935z"/>
				<path style="fill:#e1f1e0;" d="M1594.075,351.869c8.229,8.862,18.033,15.467,29.14,19.63l0.804,0.302L1695.819,300      l-71.801-71.801l-0.804,0.301c-11.107,4.164-20.911,10.768-29.14,19.631c-13.161,14.173-20.408,32.594-20.408,51.868      C1573.667,319.274,1580.914,337.695,1594.075,351.869z M1596.029,249.946c7.746-8.343,16.934-14.612,27.321-18.644L1692.048,300      l-68.697,68.697c-10.387-4.031-19.575-10.301-27.321-18.643c-12.701-13.679-19.696-31.455-19.696-50.054      C1576.333,281.4,1583.328,263.624,1596.029,249.946z"/>
				<path style="fill:#e1f1e0;" d="M1618.39,340.407l0.931,0.736L1660.464,300l-41.143-41.143l-0.931,0.736      c-2.104,1.664-4.121,3.531-5.995,5.549c-8.853,9.534-13.728,21.913-13.728,34.857c0,12.944,4.876,25.323,13.728,34.858      C1614.269,336.875,1616.286,338.742,1618.39,340.407z M1614.349,266.957c1.506-1.622,3.109-3.141,4.775-4.526L1656.692,300      l-37.568,37.568c-1.667-1.385-3.269-2.904-4.774-4.525c-8.394-9.04-13.016-20.775-13.016-33.043      S1605.956,275.997,1614.349,266.957z"/>
				<path style="fill:#e1f1e0;" d="M1500,300c0,82.843,67.157,150,150,150l150-150l-150-150C1567.157,150,1500,217.157,1500,300z       M1649.455,151.34L1798.115,300l-148.66,148.66c-81.725-0.296-148.122-66.867-148.122-148.66S1567.73,151.636,1649.455,151.34z"/>
			</g>
			<g>
				<path style="fill:#e1f1e0;" d="M1442.565,214.109c-21.658-23.325-50.957-37.547-82.498-40.045l-0.613-0.049L1233.47,300      l125.985,125.984l0.613-0.048c31.541-2.498,60.84-16.72,82.498-40.045c21.775-23.452,33.768-53.955,33.768-85.891      S1464.341,237.561,1442.565,214.109z M1360.469,423.228L1237.241,300l123.228-123.227      c63.528,5.35,113.198,59.359,113.198,123.227S1423.997,417.878,1360.469,423.228z"/>
				<path style="fill:#e1f1e0;" d="M1424.245,231.121c-14.827-15.969-33.872-26.563-55.076-30.637l-0.694-0.133l-99.65,99.65      l99.65,99.65l0.694-0.133c21.204-4.075,40.249-14.669,55.076-30.637c17.468-18.812,27.088-43.274,27.088-68.879      S1441.713,249.933,1424.245,231.121z M1422.291,367.065c-14.277,15.376-32.566,25.634-52.932,29.697L1272.597,300l96.762-96.762      c20.366,4.063,38.656,14.321,52.932,29.697c17.009,18.317,26.376,42.135,26.376,67.065S1439.3,348.747,1422.291,367.065z"/>
				<path style="fill:#e1f1e0;" d="M1405.925,248.131c-8.229-8.862-18.033-15.467-29.14-19.63l-0.804-0.301L1304.181,300      l71.801,71.801l0.804-0.302c11.107-4.164,20.911-10.768,29.14-19.631c13.161-14.173,20.408-32.594,20.408-51.868      C1426.333,280.726,1419.086,262.305,1405.925,248.131z M1403.971,350.054c-7.746,8.343-16.934,14.612-27.321,18.644      L1307.952,300l68.697-68.697c10.387,4.031,19.575,10.3,27.321,18.643c12.701,13.679,19.696,31.455,19.696,50.054      C1423.667,318.6,1416.672,336.376,1403.971,350.054z"/>
				<path style="fill:#e1f1e0;" d="M1381.61,259.593l-0.931-0.736L1339.536,300l41.143,41.143l0.931-0.736      c2.104-1.664,4.121-3.531,5.995-5.549c8.853-9.534,13.728-21.913,13.728-34.857c0-12.944-4.876-25.323-13.728-34.858      C1385.731,263.125,1383.714,261.258,1381.61,259.593z M1385.651,333.043c-1.506,1.622-3.109,3.141-4.775,4.526L1343.308,300      l37.568-37.568c1.667,1.385,3.269,2.904,4.774,4.525c8.394,9.04,13.016,20.775,13.016,33.043S1394.044,324.003,1385.651,333.043      z"/>
				<path style="fill:#e1f1e0;" d="M1500,300c0-82.843-67.157-150-150-150l-150,150l150,150C1432.843,450,1500,382.843,1500,300z       M1350.545,448.66L1201.885,300l148.66-148.66c81.725,0.296,148.122,66.867,148.122,148.66S1432.27,448.364,1350.545,448.66z"/>
			</g>
			<path style="fill:#e1f1e0;" d="M1350,150c82.843,0,150,67.157,150,150c0-82.843,67.157-150,150-150L1500,0L1350,150z      M1500,279.758c-1.128-8.491-2.97-16.813-5.485-24.899l5.485-5.485l5.485,5.485C1502.97,262.945,1501.128,271.267,1500,279.758z      M1506.403,252.006l-6.403-6.404l-6.403,6.404c-2.541-7.628-5.69-15.034-9.426-22.159l15.83-15.829l15.83,15.829     C1512.094,236.972,1508.945,244.378,1506.403,252.006z M1517.144,227.392L1500,210.247l-17.144,17.145     c-3.645-6.646-7.81-13.034-12.466-19.118l29.61-29.61l29.61,29.61C1524.955,214.358,1520.789,220.745,1517.144,227.392z      M1542.991,192.991c-4.191,4.191-8.1,8.588-11.73,13.162L1500,174.892l-31.262,31.262c-3.63-4.574-7.538-8.971-11.73-13.162     c-1.119-1.118-2.256-2.21-3.403-3.289L1500,143.308l46.395,46.394C1545.248,190.781,1544.11,191.873,1542.991,192.991z      M1548.349,187.885L1500,139.536l-48.349,48.349c-5.603-5.091-11.524-9.72-17.719-13.866L1500,107.952l66.068,66.067     C1559.873,178.165,1553.952,182.794,1548.349,187.885z M1568.351,172.531L1500,104.181l-68.351,68.351     c-6.567-4.225-13.425-7.922-20.526-11.058L1500,72.597l88.877,88.877C1581.776,164.609,1574.918,168.306,1568.351,172.531z      M1591.516,160.342L1500,68.825l-91.516,91.517c-7.71-3.229-15.69-5.806-23.873-7.712L1500,37.241l115.389,115.389     C1607.207,154.536,1599.226,157.113,1591.516,160.342z M1618.476,151.947L1500,33.47l-118.476,118.477     c-9.236-1.947-18.714-3.044-28.344-3.241L1500,1.885l146.82,146.82C1637.191,148.903,1627.713,149.999,1618.476,151.947z"/>
		</g>
		<g>
			<path style="fill:#e1f1e0;" d="M900,300c0,82.843-67.157,150-150,150l150,150l150-150C967.157,450,900,382.843,900,300z      M900,320.242c1.128,8.491,2.97,16.813,5.485,24.899L900,350.626l-5.485-5.485C897.03,337.055,898.872,328.733,900,320.242z      M893.596,347.994l6.404,6.404l6.404-6.404c2.541,7.628,5.69,15.034,9.426,22.158L900,385.981l-15.83-15.829     C887.906,363.028,891.055,355.621,893.596,347.994z M882.856,372.608L900,389.753l17.144-17.145     c3.645,6.646,7.81,13.034,12.466,19.118L900,421.337l-29.61-29.61C875.045,385.642,879.211,379.255,882.856,372.608z      M1046.82,451.295L900,598.115l-146.82-146.82c9.629-0.197,19.107-1.294,28.344-3.241L900,566.53l118.476-118.477     C1027.713,450.001,1037.191,451.097,1046.82,451.295z M1015.389,447.37L900,562.759L784.611,447.37     c8.183-1.905,16.163-4.482,23.873-7.712L900,531.175l91.516-91.516C999.226,442.888,1007.207,445.465,1015.389,447.37z      M988.877,438.527L900,527.403l-88.877-88.876c7.101-3.136,13.959-6.833,20.526-11.058L900,495.819l68.351-68.351     C974.918,431.694,981.776,435.391,988.877,438.527z M966.068,425.981L900,492.048l-66.068-66.067     c6.195-4.146,12.116-8.775,17.719-13.866L900,460.464l48.349-48.349C953.951,417.206,959.873,421.835,966.068,425.981z      M900,456.692l-46.395-46.394c1.147-1.079,2.285-2.171,3.404-3.289c4.191-4.191,8.1-8.588,11.73-13.162L900,425.108     l31.262-31.262c3.63,4.574,7.539,8.971,11.73,13.162c1.118,1.118,2.256,2.21,3.404,3.289L900,456.692z"/>
			<g>
				<path style="fill:#e1f1e0;" d="M957.435,385.891c21.658,23.325,50.957,37.547,82.498,40.045l0.613,0.048L1166.53,300      l-125.985-125.984l-0.613,0.049c-31.541,2.498-60.84,16.72-82.498,40.045c-21.775,23.451-33.768,53.955-33.768,85.891      S935.659,362.439,957.435,385.891z M1039.531,176.773L1162.759,300l-123.228,123.228      c-63.528-5.35-113.198-59.359-113.198-123.228S976.003,182.122,1039.531,176.773z"/>
				<path style="fill:#e1f1e0;" d="M975.755,368.879c14.827,15.968,33.872,26.563,55.076,30.637l0.694,0.133l99.65-99.65      l-99.65-99.65l-0.694,0.133c-21.204,4.075-40.249,14.669-55.076,30.637c-17.468,18.812-27.088,43.274-27.088,68.879      S958.287,350.067,975.755,368.879z M977.709,232.935c14.277-15.376,32.566-25.634,52.932-29.697L1127.403,300l-96.762,96.762      c-20.366-4.063-38.656-14.321-52.932-29.697C960.7,348.747,951.333,324.93,951.333,300S960.7,251.253,977.709,232.935z"/>
				<path style="fill:#e1f1e0;" d="M994.075,351.869c8.229,8.862,18.033,15.467,29.14,19.63l0.804,0.302L1095.819,300      l-71.801-71.801l-0.804,0.301c-11.107,4.164-20.911,10.768-29.14,19.631c-13.16,14.173-20.408,32.594-20.408,51.868      C973.667,319.274,980.914,337.695,994.075,351.869z M996.029,249.946c7.746-8.343,16.934-14.612,27.321-18.644L1092.048,300      l-68.697,68.697c-10.387-4.031-19.575-10.301-27.321-18.643c-12.701-13.679-19.696-31.455-19.696-50.054      C976.333,281.4,983.328,263.624,996.029,249.946z"/>
				<path style="fill:#e1f1e0;" d="M1018.39,340.407l0.931,0.736L1060.464,300l-41.143-41.143l-0.931,0.736      c-2.104,1.664-4.121,3.531-5.995,5.549c-8.853,9.534-13.728,21.913-13.728,34.857c0,12.944,4.876,25.323,13.729,34.858      C1014.269,336.875,1016.286,338.742,1018.39,340.407z M1014.349,266.957c1.506-1.622,3.109-3.141,4.775-4.526L1056.692,300      l-37.568,37.568c-1.667-1.385-3.269-2.904-4.774-4.525c-8.394-9.04-13.016-20.775-13.016-33.043      S1005.956,275.997,1014.349,266.957z"/>
				<path style="fill:#e1f1e0;" d="M900,300c0,82.843,67.157,150,150,150l150-150l-150-150C967.157,150,900,217.157,900,300z       M1049.455,151.34L1198.115,300l-148.66,148.66C967.73,448.364,901.333,381.793,901.333,300S967.73,151.636,1049.455,151.34z"/>
			</g>
			<g>
				<path style="fill:#e1f1e0;" d="M842.565,214.109c-21.658-23.325-50.957-37.547-82.498-40.045l-0.613-0.049L633.47,300      l125.985,125.984l0.613-0.048c31.541-2.498,60.84-16.72,82.498-40.045c21.775-23.452,33.768-53.955,33.768-85.891      S864.341,237.561,842.565,214.109z M760.469,423.228L637.241,300l123.228-123.227c63.528,5.35,113.198,59.359,113.198,123.227      S823.997,417.878,760.469,423.228z"/>
				<path style="fill:#e1f1e0;" d="M824.245,231.121c-14.827-15.969-33.872-26.563-55.076-30.637l-0.694-0.133L668.825,300      l99.65,99.65l0.694-0.133c21.204-4.075,40.249-14.669,55.076-30.637c17.468-18.812,27.088-43.274,27.088-68.879      S841.713,249.933,824.245,231.121z M822.291,367.065c-14.277,15.376-32.566,25.634-52.932,29.697L672.597,300l96.762-96.762      c20.366,4.063,38.656,14.321,52.932,29.697C839.3,251.253,848.667,275.07,848.667,300S839.3,348.747,822.291,367.065z"/>
				<path style="fill:#e1f1e0;" d="M805.925,248.131c-8.229-8.862-18.033-15.467-29.14-19.63l-0.804-0.301L704.181,300      l71.801,71.801l0.804-0.302c11.107-4.164,20.911-10.768,29.14-19.631c13.16-14.173,20.408-32.594,20.408-51.868      C826.333,280.726,819.086,262.305,805.925,248.131z M803.971,350.054c-7.746,8.343-16.934,14.612-27.321,18.644L707.952,300      l68.697-68.697c10.387,4.031,19.575,10.3,27.321,18.643c12.701,13.679,19.696,31.455,19.696,50.054      C823.667,318.6,816.672,336.376,803.971,350.054z"/>
				<path style="fill:#e1f1e0;" d="M781.61,259.593l-0.931-0.736L739.536,300l41.143,41.143l0.931-0.736      c2.104-1.664,4.121-3.531,5.995-5.549c8.853-9.534,13.728-21.913,13.728-34.857c0-12.944-4.876-25.323-13.729-34.858      C785.731,263.125,783.714,261.258,781.61,259.593z M785.651,333.043c-1.506,1.622-3.109,3.141-4.775,4.526L743.308,300      l37.568-37.568c1.667,1.385,3.269,2.904,4.774,4.525c8.394,9.04,13.016,20.775,13.016,33.043S794.044,324.003,785.651,333.043z"/>
				<path style="fill:#e1f1e0;" d="M900,300c0-82.843-67.157-150-150-150L600,300l150,150C832.843,450,900,382.843,900,300z       M750.545,448.66L601.885,300l148.66-148.66c81.725,0.296,148.121,66.867,148.121,148.66S832.27,448.364,750.545,448.66z"/>
			</g>
			<path style="fill:#e1f1e0;" d="M750,150c82.843,0,150,67.157,150,150c0-82.843,67.157-150,150-150L900,0L750,150z M900,279.758     c-1.128-8.491-2.97-16.813-5.485-24.899l5.485-5.485l5.485,5.485C902.97,262.945,901.128,271.267,900,279.758z M906.404,252.006     L900,245.602l-6.404,6.404c-2.541-7.628-5.69-15.034-9.426-22.159L900,214.019l15.83,15.829     C912.094,236.972,908.945,244.378,906.404,252.006z M917.144,227.392L900,210.247l-17.144,17.145     c-3.645-6.646-7.81-13.034-12.466-19.118l29.61-29.61l29.61,29.61C924.955,214.358,920.789,220.745,917.144,227.392z      M942.991,192.991c-4.191,4.191-8.1,8.588-11.73,13.162L900,174.892l-31.262,31.262c-3.63-4.574-7.539-8.971-11.73-13.162     c-1.118-1.118-2.256-2.21-3.404-3.289L900,143.308l46.395,46.394C945.248,190.781,944.11,191.873,942.991,192.991z      M948.349,187.885L900,139.536l-48.349,48.349c-5.602-5.091-11.524-9.72-17.719-13.866L900,107.952l66.068,66.067     C959.873,178.165,953.951,182.794,948.349,187.885z M968.351,172.531L900,104.181l-68.351,68.351     c-6.567-4.225-13.425-7.922-20.526-11.058L900,72.597l88.877,88.877C981.776,164.609,974.918,168.306,968.351,172.531z      M991.516,160.342L900,68.825l-91.516,91.517c-7.71-3.229-15.69-5.806-23.873-7.712L900,37.241l115.389,115.389     C1007.207,154.536,999.226,157.113,991.516,160.342z M1018.476,151.947L900,33.47L781.524,151.947     c-9.236-1.947-18.714-3.044-28.344-3.241L900,1.885l146.82,146.82C1037.191,148.903,1027.713,149.999,1018.476,151.947z"/>
		</g>
		<g>
			<path style="fill:#e1f1e0;" d="M300,300c0,82.843-67.157,150-150,150l150,150l150-150C367.157,450,300,382.843,300,300z      M300,320.242c1.128,8.491,2.97,16.813,5.485,24.899L300,350.626l-5.485-5.485C297.03,337.055,298.872,328.733,300,320.242z      M293.596,347.994l6.404,6.404l6.404-6.404c2.541,7.628,5.69,15.034,9.426,22.158L300,385.981l-15.83-15.829     C287.906,363.028,291.055,355.621,293.596,347.994z M282.856,372.608L300,389.753l17.144-17.145     c3.645,6.646,7.81,13.034,12.466,19.118L300,421.337l-29.611-29.61C275.045,385.642,279.211,379.255,282.856,372.608z      M446.82,451.295L300,598.115l-146.82-146.82c9.629-0.197,19.107-1.294,28.344-3.241L300,566.53l118.476-118.477     C427.713,450.001,437.191,451.097,446.82,451.295z M415.389,447.37L300,562.759L184.611,447.37     c8.183-1.905,16.163-4.482,23.873-7.712L300,531.175l91.516-91.516C399.226,442.888,407.207,445.465,415.389,447.37z      M388.877,438.527L300,527.403l-88.877-88.876c7.101-3.136,13.959-6.833,20.526-11.058L300,495.819l68.351-68.351     C374.918,431.694,381.776,435.391,388.877,438.527z M366.068,425.981L300,492.048l-66.068-66.067     c6.195-4.146,12.116-8.775,17.719-13.866L300,460.464l48.349-48.349C353.952,417.206,359.873,421.835,366.068,425.981z      M300,456.692l-46.395-46.394c1.147-1.079,2.285-2.171,3.403-3.289c4.191-4.191,8.1-8.588,11.73-13.162L300,425.108     l31.262-31.262c3.63,4.574,7.539,8.971,11.73,13.162c1.118,1.118,2.257,2.21,3.404,3.289L300,456.692z"/>
			<g>
				<path style="fill:#e1f1e0;" d="M357.435,385.891c21.658,23.325,50.957,37.547,82.498,40.045l0.613,0.048L566.53,300      L440.546,174.016l-0.613,0.049c-31.541,2.498-60.84,16.72-82.498,40.045c-21.775,23.451-33.768,53.955-33.768,85.891      S335.659,362.439,357.435,385.891z M439.531,176.773L562.759,300L439.531,423.228c-63.528-5.35-113.198-59.359-113.198-123.228      S376.003,182.122,439.531,176.773z"/>
				<path style="fill:#e1f1e0;" d="M375.755,368.879c14.827,15.968,33.872,26.563,55.076,30.637l0.694,0.133l99.65-99.65      l-99.65-99.65l-0.694,0.133c-21.204,4.075-40.249,14.669-55.076,30.637c-17.468,18.812-27.088,43.274-27.088,68.879      S358.287,350.067,375.755,368.879z M377.709,232.935c14.277-15.376,32.566-25.634,52.932-29.697L527.403,300l-96.762,96.762      c-20.366-4.063-38.656-14.321-52.932-29.697C360.7,348.747,351.333,324.93,351.333,300S360.7,251.253,377.709,232.935z"/>
				<path style="fill:#e1f1e0;" d="M394.075,351.869c8.229,8.862,18.033,15.467,29.14,19.63l0.804,0.302L495.819,300l-71.801-71.801      l-0.804,0.301c-11.107,4.164-20.911,10.768-29.14,19.631c-13.16,14.173-20.408,32.594-20.408,51.868      C373.667,319.274,380.914,337.695,394.075,351.869z M396.029,249.946c7.746-8.343,16.934-14.612,27.321-18.644L492.048,300      l-68.697,68.697c-10.387-4.031-19.575-10.301-27.321-18.643c-12.701-13.679-19.696-31.455-19.696-50.054      C376.333,281.4,383.328,263.624,396.029,249.946z"/>
				<path style="fill:#e1f1e0;" d="M418.39,340.407l0.931,0.736L460.464,300l-41.143-41.143l-0.931,0.736      c-2.104,1.664-4.121,3.531-5.995,5.549c-8.853,9.534-13.728,21.913-13.728,34.857c0,12.944,4.876,25.323,13.729,34.858      C414.269,336.875,416.286,338.742,418.39,340.407z M414.349,266.957c1.506-1.622,3.109-3.141,4.775-4.526L456.692,300      l-37.568,37.568c-1.667-1.385-3.269-2.904-4.774-4.525c-8.394-9.04-13.016-20.775-13.016-33.043      S405.956,275.997,414.349,266.957z"/>
				<path style="fill:#e1f1e0;" d="M300,300c0,82.843,67.157,150,150,150l150-150L450,150C367.157,150,300,217.157,300,300z       M449.455,151.34L598.115,300l-148.66,148.66C367.73,448.364,301.333,381.793,301.333,300S367.73,151.636,449.455,151.34z"/>
			</g>
			<g>
				<path style="fill:#e1f1e0;" d="M242.565,214.109c-21.658-23.325-50.957-37.547-82.498-40.045l-0.613-0.049L33.47,300      l125.985,125.984l0.613-0.048c31.541-2.498,60.84-16.72,82.498-40.045c21.775-23.452,33.768-53.955,33.768-85.891      S264.341,237.561,242.565,214.109z M160.469,423.228L37.241,300l123.228-123.227c63.528,5.35,113.198,59.359,113.198,123.227      S223.997,417.878,160.469,423.228z"/>
				<path style="fill:#e1f1e0;" d="M224.245,231.121c-14.827-15.969-33.872-26.563-55.076-30.637l-0.694-0.133L68.825,300      l99.65,99.65l0.694-0.133c21.204-4.075,40.249-14.669,55.076-30.637c17.468-18.812,27.088-43.274,27.088-68.879      S241.713,249.933,224.245,231.121z M222.291,367.065c-14.277,15.376-32.566,25.634-52.932,29.697L72.597,300l96.762-96.762      c20.366,4.063,38.656,14.321,52.932,29.697C239.3,251.253,248.667,275.07,248.667,300S239.3,348.747,222.291,367.065z"/>
				<path style="fill:#e1f1e0;" d="M205.925,248.131c-8.229-8.862-18.033-15.467-29.14-19.63l-0.804-0.301L104.181,300      l71.801,71.801l0.804-0.302c11.107-4.164,20.911-10.768,29.14-19.631c13.161-14.173,20.408-32.594,20.408-51.868      C226.333,280.726,219.086,262.305,205.925,248.131z M203.971,350.054c-7.746,8.343-16.934,14.612-27.321,18.644L107.952,300      l68.697-68.697c10.387,4.031,19.575,10.3,27.321,18.643c12.701,13.679,19.696,31.455,19.696,50.054      C223.667,318.6,216.672,336.376,203.971,350.054z"/>
				<path style="fill:#e1f1e0;" d="M181.61,259.593l-0.931-0.736L139.536,300l41.143,41.143l0.931-0.736      c2.104-1.664,4.121-3.531,5.995-5.549c8.853-9.534,13.728-21.913,13.728-34.857c0-12.944-4.876-25.323-13.729-34.858      C185.731,263.125,183.714,261.258,181.61,259.593z M185.651,333.043c-1.506,1.622-3.109,3.141-4.775,4.526L143.308,300      l37.568-37.568c1.667,1.385,3.269,2.904,4.774,4.525c8.394,9.04,13.016,20.775,13.016,33.043S194.044,324.003,185.651,333.043z"/>
				<path style="fill:#e1f1e0;" d="M300,300c0-82.843-67.157-150-150-150L0,300l150,150C232.843,450,300,382.843,300,300z       M150.545,448.66L1.885,300l148.66-148.66c81.725,0.296,148.121,66.867,148.121,148.66S232.27,448.364,150.545,448.66z"/>
			</g>
			<path style="fill:#e1f1e0;" d="M150,150c82.843,0,150,67.157,150,150c0-82.843,67.157-150,150-150L300,0L150,150z M300,279.758     c-1.128-8.491-2.97-16.813-5.485-24.899l5.485-5.485l5.485,5.485C302.97,262.945,301.128,271.267,300,279.758z M306.404,252.006     L300,245.602l-6.404,6.404c-2.541-7.628-5.69-15.034-9.426-22.159L300,214.019l15.83,15.829     C312.094,236.972,308.945,244.378,306.404,252.006z M317.144,227.392L300,210.247l-17.144,17.145     c-3.645-6.646-7.81-13.034-12.466-19.118L300,178.663l29.611,29.61C324.955,214.358,320.789,220.745,317.144,227.392z      M342.991,192.991c-4.191,4.191-8.1,8.588-11.73,13.162L300,174.892l-31.262,31.262c-3.63-4.574-7.539-8.971-11.73-13.162     c-1.118-1.118-2.256-2.21-3.403-3.289L300,143.308l46.395,46.394C345.248,190.781,344.11,191.873,342.991,192.991z      M348.349,187.885L300,139.536l-48.349,48.349c-5.603-5.091-11.524-9.72-17.719-13.866L300,107.952l66.068,66.067     C359.873,178.165,353.952,182.794,348.349,187.885z M368.351,172.531L300,104.181l-68.351,68.351     c-6.567-4.225-13.425-7.922-20.526-11.058L300,72.597l88.877,88.877C381.776,164.609,374.918,168.306,368.351,172.531z      M391.516,160.342L300,68.825l-91.516,91.517c-7.71-3.229-15.691-5.806-23.873-7.712L300,37.241L415.389,152.63     C407.207,154.536,399.226,157.113,391.516,160.342z M418.476,151.947L300,33.47L181.524,151.947     c-9.236-1.947-18.714-3.044-28.344-3.241L300,1.885l146.82,146.82C437.191,148.903,427.713,149.999,418.476,151.947z"/>
		</g>
		<g>
			<path style="fill:#e1f1e0;" d="M1653.18,151.295c9.629-0.197,19.107-1.294,28.344-3.241L1800,266.53v-3.772L1684.611,147.37     c8.183-1.906,16.163-4.482,23.873-7.712L1800,231.175v-3.771l-88.877-88.876c7.101-3.136,13.959-6.833,20.526-11.059     L1800,195.819v-3.771l-66.068-66.067c6.195-4.146,12.116-8.775,17.719-13.866L1800,160.464v-3.771l-46.395-46.394     c1.147-1.079,2.285-2.171,3.403-3.289c4.191-4.191,8.1-8.588,11.73-13.162L1800,125.108v-3.771l-29.61-29.61     c4.656-6.085,8.822-12.472,12.466-19.118L1800,89.753v-3.771l-15.83-15.829c3.736-7.124,6.885-14.531,9.426-22.159l6.403,6.404     v-3.771l-5.485-5.485c2.515-8.086,4.357-16.408,5.485-24.899V0c0,82.843-67.157,150-150,150l150,150v-1.885L1653.18,151.295z"/>
			<g>
				<path style="fill:#e1f1e0;" d="M1660.067,125.936c31.541-2.498,60.84-16.72,82.498-40.045      c21.775-23.452,33.768-53.955,33.768-85.891h-2.667c0,63.869-49.67,117.878-113.198,123.228L1537.241,0h-3.771l125.985,125.984      L1660.067,125.936z"/>
				<path style="fill:#e1f1e0;" d="M1669.17,99.516c21.204-4.075,40.249-14.669,55.076-30.637      c17.468-18.812,27.088-43.274,27.088-68.879h-2.667c0,24.93-9.367,48.747-26.376,67.065      c-14.277,15.376-32.566,25.634-52.932,29.697L1572.597,0h-3.771l99.65,99.65L1669.17,99.516z"/>
				<path style="fill:#e1f1e0;" d="M1676.786,71.499c11.107-4.164,20.911-10.768,29.14-19.631      c13.161-14.173,20.408-32.593,20.408-51.868h-2.667c0,18.6-6.995,36.376-19.696,50.054      c-7.746,8.343-16.934,14.612-27.321,18.644L1607.952,0h-3.771l71.801,71.801L1676.786,71.499z"/>
				<path style="fill:#e1f1e0;" d="M1681.61,40.407c2.104-1.664,4.121-3.531,5.995-5.549c8.853-9.534,13.728-21.913,13.728-34.857      h-2.667c0,12.269-4.622,24.003-13.016,33.043c-1.506,1.622-3.109,3.141-4.775,4.526L1643.308,0h-3.771l41.143,41.143      L1681.61,40.407z"/>
				<path style="fill:#e1f1e0;" d="M1800,0h-1.333c0,81.793-66.397,148.364-148.122,148.66L1501.885,0H1500l150,150      C1732.843,150,1800,82.843,1800,0z"/>
			</g>
		</g>
		<g>
			<path style="fill:#e1f1e0;" d="M1200,0c0,82.843-67.157,150-150,150l150,150l150-150C1267.157,150,1200,82.843,1200,0z      M1200,20.242c1.128,8.491,2.97,16.813,5.485,24.899L1200,50.626l-5.485-5.485C1197.03,37.055,1198.872,28.733,1200,20.242z      M1193.597,47.994l6.403,6.404l6.403-6.404c2.541,7.628,5.69,15.034,9.426,22.159L1200,85.981l-15.83-15.829     C1187.906,63.028,1191.055,55.621,1193.597,47.994z M1182.856,72.608L1200,89.753l17.144-17.145     c3.645,6.646,7.81,13.034,12.466,19.118l-29.61,29.61l-29.61-29.61C1175.045,85.642,1179.211,79.255,1182.856,72.608z      M1346.82,151.295L1200,298.115l-146.82-146.82c9.629-0.197,19.107-1.294,28.344-3.241L1200,266.53l118.476-118.477     C1327.713,150.001,1337.191,151.097,1346.82,151.295z M1315.389,147.37L1200,262.759L1084.611,147.37     c8.183-1.906,16.163-4.482,23.873-7.712L1200,231.175l91.516-91.516C1299.226,142.887,1307.207,145.464,1315.389,147.37z      M1288.877,138.527L1200,227.403l-88.877-88.876c7.101-3.136,13.959-6.833,20.526-11.059L1200,195.819l68.351-68.351     C1274.918,131.694,1281.776,135.391,1288.877,138.527z M1266.068,125.981L1200,192.048l-66.068-66.067     c6.195-4.146,12.116-8.775,17.719-13.866L1200,160.464l48.349-48.349C1253.952,117.206,1259.873,121.835,1266.068,125.981z      M1200,156.692l-46.395-46.394c1.147-1.079,2.285-2.171,3.403-3.289c4.191-4.191,8.1-8.588,11.73-13.162L1200,125.108     l31.262-31.262c3.63,4.574,7.538,8.971,11.73,13.162c1.119,1.118,2.256,2.21,3.403,3.289L1200,156.692z"/>
			<g>
				<path style="fill:#e1f1e0;" d="M1339.531,123.228c-63.528-5.35-113.198-59.359-113.198-123.228h-2.667      c0,31.936,11.992,62.439,33.768,85.891c21.658,23.325,50.957,37.547,82.498,40.045l0.613,0.049L1466.53,0h-3.771      L1339.531,123.228z"/>
				<path style="fill:#e1f1e0;" d="M1330.641,96.762c-20.366-4.063-38.656-14.321-52.932-29.697      C1260.7,48.747,1251.333,24.93,1251.333,0h-2.667c0,25.605,9.62,50.067,27.088,68.879      c14.827,15.968,33.872,26.563,55.076,30.637l0.694,0.133L1431.175,0h-3.771L1330.641,96.762z"/>
				<path style="fill:#e1f1e0;" d="M1323.351,68.697c-10.387-4.031-19.575-10.301-27.321-18.643      c-12.701-13.679-19.696-31.455-19.696-50.054h-2.667c0,19.274,7.248,37.695,20.408,51.869      c8.229,8.862,18.033,15.467,29.14,19.63l0.804,0.301L1395.819,0h-3.771L1323.351,68.697z"/>
				<path style="fill:#e1f1e0;" d="M1319.124,37.568c-1.667-1.385-3.269-2.904-4.774-4.525c-8.394-9.04-13.016-20.775-13.016-33.043      h-2.667c0,12.944,4.876,25.323,13.728,34.858c1.874,2.018,3.891,3.884,5.995,5.549l0.931,0.736L1360.464,0h-3.771      L1319.124,37.568z"/>
				<path style="fill:#e1f1e0;" d="M1349.455,148.66C1267.73,148.364,1201.333,81.793,1201.333,0H1200c0,82.843,67.157,150,150,150      L1500,0h-1.885L1349.455,148.66z"/>
			</g>
			<g>
				<path style="fill:#e1f1e0;" d="M1060.469,123.228L937.241,0h-3.771l125.985,125.984l0.613-0.049      c31.541-2.498,60.84-16.72,82.498-40.045c21.775-23.452,33.768-53.955,33.768-85.891h-2.667      C1173.667,63.869,1123.997,117.878,1060.469,123.228z"/>
				<path style="fill:#e1f1e0;" d="M1122.291,67.065c-14.277,15.376-32.566,25.634-52.932,29.697L972.597,0h-3.771l99.65,99.65      l0.694-0.133c21.204-4.075,40.249-14.669,55.076-30.637c17.468-18.812,27.088-43.274,27.088-68.879h-2.667      C1148.667,24.93,1139.3,48.747,1122.291,67.065z"/>
				<path style="fill:#e1f1e0;" d="M1103.971,50.054c-7.746,8.343-16.934,14.612-27.321,18.644L1007.952,0h-3.771l71.801,71.801      l0.804-0.301c11.107-4.164,20.911-10.768,29.14-19.631c13.161-14.173,20.408-32.593,20.408-51.868h-2.667      C1123.667,18.6,1116.672,36.376,1103.971,50.054z"/>
				<path style="fill:#e1f1e0;" d="M1085.651,33.043c-1.506,1.622-3.109,3.141-4.775,4.526L1043.308,0h-3.771l41.143,41.143      l0.931-0.736c2.104-1.664,4.121-3.531,5.995-5.549c8.853-9.534,13.728-21.913,13.728-34.857h-2.667      C1098.667,12.269,1094.044,24.003,1085.651,33.043z"/>
				<path style="fill:#e1f1e0;" d="M1050.545,148.66L901.885,0H900l150,150c82.843,0,150-67.157,150-150h-1.333      C1198.667,81.793,1132.27,148.364,1050.545,148.66z"/>
			</g>
		</g>
		<g>
			<path style="fill:#e1f1e0;" d="M600,0c0,82.843-67.157,150-150,150l150,150l150-150C667.157,150,600,82.843,600,0z M600,20.242     c1.128,8.491,2.97,16.813,5.485,24.899L600,50.626l-5.485-5.485C597.03,37.055,598.872,28.733,600,20.242z M593.596,47.994     L600,54.397l6.404-6.404c2.541,7.628,5.69,15.034,9.426,22.159L600,85.981l-15.83-15.829     C587.906,63.028,591.055,55.621,593.596,47.994z M582.856,72.608L600,89.753l17.144-17.145     c3.645,6.646,7.81,13.034,12.466,19.118L600,121.337l-29.61-29.61C575.045,85.642,579.211,79.255,582.856,72.608z      M746.82,151.295L600,298.115l-146.82-146.82c9.629-0.197,19.107-1.294,28.344-3.241L600,266.53l118.476-118.477     C727.713,150.001,737.191,151.097,746.82,151.295z M715.389,147.37L600,262.759L484.611,147.37     c8.183-1.906,16.163-4.482,23.873-7.712L600,231.175l91.516-91.516C699.226,142.887,707.207,145.464,715.389,147.37z      M688.877,138.527L600,227.403l-88.877-88.876c7.101-3.136,13.959-6.833,20.526-11.059L600,195.819l68.351-68.351     C674.918,131.694,681.776,135.391,688.877,138.527z M666.068,125.981L600,192.048l-66.068-66.067     c6.195-4.146,12.116-8.775,17.719-13.866L600,160.464l48.349-48.349C653.951,117.206,659.873,121.835,666.068,125.981z      M600,156.692l-46.395-46.394c1.147-1.079,2.285-2.171,3.404-3.289c4.191-4.191,8.1-8.588,11.73-13.162L600,125.108     l31.262-31.262c3.63,4.574,7.539,8.971,11.73,13.162c1.118,1.118,2.256,2.21,3.404,3.289L600,156.692z"/>
			<g>
				<path style="fill:#e1f1e0;" d="M739.531,123.228C676.003,117.878,626.333,63.869,626.333,0h-2.667      c0,31.936,11.992,62.439,33.768,85.891c21.658,23.325,50.957,37.547,82.498,40.045l0.613,0.049L866.53,0h-3.771L739.531,123.228      z"/>
				<path style="fill:#e1f1e0;" d="M730.641,96.762c-20.366-4.063-38.656-14.321-52.932-29.697      C660.7,48.747,651.333,24.93,651.333,0h-2.667c0,25.605,9.62,50.067,27.088,68.879c14.827,15.968,33.872,26.563,55.076,30.637      l0.694,0.133L831.175,0h-3.771L730.641,96.762z"/>
				<path style="fill:#e1f1e0;" d="M723.351,68.697c-10.387-4.031-19.575-10.301-27.321-18.643      C683.328,36.376,676.333,18.599,676.333,0h-2.667c0,19.274,7.248,37.695,20.408,51.869c8.229,8.862,18.033,15.467,29.14,19.63      l0.804,0.301L795.819,0h-3.771L723.351,68.697z"/>
				<path style="fill:#e1f1e0;" d="M719.124,37.568c-1.667-1.385-3.269-2.904-4.774-4.525c-8.394-9.04-13.016-20.775-13.016-33.043      h-2.667c0,12.944,4.876,25.323,13.729,34.858c1.874,2.018,3.891,3.884,5.995,5.549l0.931,0.736L760.464,0h-3.772L719.124,37.568      z"/>
				<path style="fill:#e1f1e0;" d="M749.455,148.66C667.73,148.364,601.333,81.793,601.333,0H600c0,82.843,67.157,150,150,150L900,0      h-1.885L749.455,148.66z"/>
			</g>
			<g>
				<path style="fill:#e1f1e0;" d="M460.469,123.228L337.241,0h-3.772l125.985,125.984l0.613-0.049      c31.541-2.498,60.84-16.72,82.498-40.045C564.341,62.439,576.333,31.936,576.333,0h-2.667      C573.667,63.869,523.997,117.878,460.469,123.228z"/>
				<path style="fill:#e1f1e0;" d="M522.291,67.065c-14.277,15.376-32.566,25.634-52.932,29.697L372.597,0h-3.772l99.65,99.65      l0.694-0.133c21.204-4.075,40.249-14.669,55.076-30.637C541.713,50.067,551.333,25.605,551.333,0h-2.667      C548.667,24.93,539.3,48.747,522.291,67.065z"/>
				<path style="fill:#e1f1e0;" d="M503.971,50.054c-7.746,8.343-16.934,14.612-27.321,18.644L407.952,0h-3.771l71.801,71.801      l0.804-0.301c11.107-4.164,20.911-10.768,29.14-19.631C519.086,37.695,526.333,19.275,526.333,0h-2.667      C523.667,18.6,516.672,36.376,503.971,50.054z"/>
				<path style="fill:#e1f1e0;" d="M485.651,33.043c-1.506,1.622-3.109,3.141-4.775,4.526L443.308,0h-3.771l41.143,41.143      l0.931-0.736c2.104-1.664,4.121-3.531,5.995-5.549c8.853-9.534,13.728-21.913,13.728-34.857h-2.667      C498.667,12.269,494.044,24.003,485.651,33.043z"/>
				<path style="fill:#e1f1e0;" d="M450.545,148.66L301.885,0H300l150,150c82.843,0,150-67.157,150-150h-1.333      C598.667,81.793,532.27,148.364,450.545,148.66z"/>
			</g>
		</g>
		<g>
			<path style="fill:#e1f1e0;" d="M0,0v20.242c1.128,8.491,2.97,16.813,5.485,24.899L0,50.626v3.771l6.403-6.404     c2.541,7.628,5.69,15.034,9.426,22.159L0,85.981v3.771l17.144-17.145c3.645,6.646,7.81,13.034,12.466,19.118L0,121.337v3.771     l31.262-31.262c3.63,4.574,7.538,8.971,11.73,13.162c1.118,1.118,2.257,2.21,3.403,3.289L0,156.692v3.771l48.349-48.349     c5.602,5.091,11.524,9.72,17.718,13.866L0,192.048v3.771l68.351-68.351c6.567,4.225,13.425,7.923,20.526,11.059L0,227.403v3.771     l91.516-91.516c7.71,3.229,15.691,5.806,23.873,7.712L0,262.759v3.772l118.476-118.477c9.236,1.947,18.714,3.044,28.344,3.241     L0,298.115V300l150-150C67.157,150,0,82.843,0,0z"/>
			<g>
				<path style="fill:#e1f1e0;" d="M139.531,123.228C76.003,117.878,26.333,63.869,26.333,0h-2.667      c0,31.936,11.992,62.439,33.768,85.891c21.658,23.325,50.957,37.547,82.498,40.045l0.613,0.049L266.53,0h-3.772L139.531,123.228      z"/>
				<path style="fill:#e1f1e0;" d="M130.641,96.762c-20.366-4.063-38.656-14.321-52.932-29.697C60.7,48.747,51.333,24.93,51.333,0      h-2.667c0,25.605,9.62,50.067,27.088,68.879c14.827,15.968,33.872,26.563,55.076,30.637l0.694,0.133L231.175,0h-3.771      L130.641,96.762z"/>
				<path style="fill:#e1f1e0;" d="M123.351,68.697c-10.387-4.031-19.575-10.301-27.321-18.643      C83.328,36.376,76.333,18.599,76.333,0h-2.667c0,19.274,7.248,37.695,20.408,51.869c8.229,8.862,18.033,15.467,29.14,19.63      l0.804,0.301L195.819,0h-3.771L123.351,68.697z"/>
				<path style="fill:#e1f1e0;" d="M119.124,37.568c-1.667-1.385-3.269-2.904-4.774-4.525c-8.394-9.04-13.016-20.775-13.016-33.043      h-2.667c0,12.944,4.876,25.323,13.729,34.858c1.874,2.018,3.891,3.884,5.995,5.549l0.931,0.736L160.464,0h-3.771L119.124,37.568      z"/>
				<path style="fill:#e1f1e0;" d="M149.455,148.66C67.73,148.364,1.333,81.793,1.333,0H0c0,82.843,67.157,150,150,150L300,0h-1.885      L149.455,148.66z"/>
			</g>
		</g>
	</g>
</g>
</svg>